<?xml version="1.0" standalone="no"?>
<!DOCTYPE svg PUBLIC "-//W3C//DTD SVG 1.1//EN" "http://www.w3.org/Graphics/SVG/1.1/DTD/svg11.dtd" >
<svg xmlns="http://www.w3.org/2000/svg" xmlns:xlink="http://www.w3.org/1999/xlink" version="1.1">
<metadata></metadata>
<defs>
<font id="neutra_textlight_alt" horiz-adv-x="368" >
<font-face units-per-em="2048" ascent="1638" descent="-410" />
<missing-glyph horiz-adv-x="499" />
<glyph unicode="&#xfb01;" horiz-adv-x="952" d="M74 768v68h133v430q0 129 58.5 184t137.5 55q76 0 117 -27.5t70 -70.5l-60 -45q-23 33 -47 52.5t-77 19.5t-86 -35t-33 -135v-428h493v-836h-80v768h-413v-768h-80v768h-133zM672 1196q0 29 20.5 48.5t46.5 19.5q27 0 47.5 -19.5t20.5 -48.5q0 -31 -20.5 -49.5 t-47.5 -18.5t-47 18.5t-20 49.5z" />
<glyph unicode="&#xfb02;" horiz-adv-x="964" d="M74 768v68h133v430q0 129 58.5 184t137.5 55q76 0 117 -27.5t70 -70.5l-60 -45q-23 33 -47 52.5t-77 19.5t-86 -35t-33 -135v-428h223v-68h-223v-768h-80v768h-133zM700 0v1479h80v-1479h-80z" />
<glyph horiz-adv-x="0" />
<glyph unicode="&#xd;" horiz-adv-x="499" />
<glyph unicode=" "  horiz-adv-x="499" />
<glyph unicode="&#x09;" horiz-adv-x="499" />
<glyph unicode="&#xa0;" horiz-adv-x="499" />
<glyph unicode="!" horiz-adv-x="458" d="M152 63q0 35 24.5 57.5t52.5 22.5q31 0 54.5 -22.5t23.5 -57.5q0 -33 -23.5 -55t-54.5 -22q-29 0 -53 22.5t-24 54.5zM184 1393h90l-14 -1045h-61z" />
<glyph unicode="&#x22;" horiz-adv-x="460" d="M86 1393h84l-10 -396h-64zM291 1393h84l-10 -396h-64z" />
<glyph unicode="#" horiz-adv-x="882" d="M57 764v70h164l64 253h-164v70h180l59 236h74l-59 -236h227l60 236h73l-59 -236h149v-70h-166l-63 -253h164v-70h-182l-56 -227h-76l58 227h-228l-55 -227h-74l58 227h-148zM295 834h227l64 253h-228z" />
<glyph unicode="$" horiz-adv-x="1079" d="M76 262l71 35q25 -47 54.5 -89t70.5 -74t93.5 -51.5t123.5 -25.5v668l-30 14q-74 33 -130.5 70t-95 81t-58 97t-19.5 123t27.5 125t73.5 93t106.5 58.5t125.5 22.5v174h76v-178q115 -16 183.5 -72.5t109.5 -122.5l-65 -43q-35 53 -86.5 101.5t-141.5 62.5v-555l56 -24 q174 -80 253.5 -175.5t79.5 -240.5q0 -156 -103 -251t-286 -101v-222h-76v224q-86 6 -151.5 29.5t-114.5 60.5t-85 85t-62 101zM236 1112q0 -55 13 -96t44 -76t79 -65.5t117 -63.5v526q-117 -2 -185 -61t-68 -164zM565 55q147 6 228 81t81 200q0 61 -16 109.5t-52 89 t-90 75.5t-128 70l-23 10v-635z" />
<glyph unicode="%" horiz-adv-x="1529" d="M68 1081q0 72 26.5 132.5t72.5 103.5t104.5 67.5t123.5 24.5q63 0 123 -24.5t106 -67.5t72.5 -103.5t26.5 -132.5t-26.5 -132t-72.5 -103t-106 -67.5t-123 -24.5q-66 0 -124 24.5t-104 67.5t-72.5 103.5t-26.5 131.5zM147 1081q0 -57 19.5 -104t53.5 -81t79 -52.5 t96 -18.5t96.5 18.5t79 52.5t53 81t19.5 104t-19.5 104.5t-53 81t-79 52t-96.5 18.5t-96 -18.5t-79 -52t-53.5 -80.5t-19.5 -105zM283 0l878 1393h86l-878 -1393h-86zM807 311q0 72 26.5 132.5t72.5 103.5t104.5 67.5t124.5 24.5q63 0 122.5 -24.5t104.5 -67.5t71.5 -103.5 t26.5 -132.5t-26.5 -132t-71.5 -103t-104.5 -67.5t-122.5 -24.5q-66 0 -124.5 24.5t-104.5 67.5t-72.5 103.5t-26.5 131.5zM885 311q0 -57 19.5 -104t53 -81t80 -52.5t97.5 -18.5t96 18.5t78.5 52.5t53 81t19.5 104t-19.5 104.5t-53 81t-78.5 52t-96 18.5t-97.5 -18.5 t-80 -52t-53 -80.5t-19.5 -105z" />
<glyph unicode="&#x26;" horiz-adv-x="1300" d="M94 350q0 92 33 162t85 124t119.5 98t139.5 85l-45 55q-111 135 -111 269q0 115 73 190.5t194 75.5q57 0 106 -20.5t84 -57.5t54.5 -85t19.5 -103t-20.5 -102.5t-55.5 -88.5t-82 -77.5t-100 -69.5l352 -424q33 78 50.5 173t17.5 206h77q0 -131 -23.5 -241.5t-66.5 -203.5 l262 -315h-104l-201 242q-80 -125 -198.5 -191.5t-264.5 -66.5q-88 0 -160.5 25.5t-124.5 72.5t-81 114.5t-29 153.5zM180 350q0 -135 84 -213t225 -78q133 0 237.5 63.5t174.5 180.5l-383 461q-68 -39 -128 -78t-107 -87t-75 -108.5t-28 -140.5zM397 1143q0 -109 88 -213 l56 -68q45 27 86 57.5t71.5 64.5t48 73t17.5 86q0 86 -51 138t-131 52q-84 0 -134.5 -50t-50.5 -140z" />
<glyph unicode="'" horiz-adv-x="256" d="M86 1393h84l-10 -396h-64z" />
<glyph unicode="(" horiz-adv-x="534" d="M84 596q0 154 28.5 284t76 238.5t107.5 196.5t126 155l53 -47q-59 -68 -114.5 -150.5t-98.5 -184t-68.5 -224.5t-25.5 -268q0 -147 25.5 -269t68.5 -223.5t98.5 -184.5t114.5 -150l-53 -48q-66 68 -126 156t-107.5 195.5t-76 238.5t-28.5 285z" />
<glyph unicode=")" horiz-adv-x="534" d="M59 -231q59 68 114.5 150.5t97.5 184t68 224.5t26 268q0 147 -26 269t-68 223.5t-97 184.5t-115 150l54 47q63 -68 123.5 -155.5t108.5 -195t77 -238.5t29 -285t-29 -284t-77 -238.5t-108.5 -196.5t-123.5 -156z" />
<glyph unicode="*" horiz-adv-x="776" d="M113 977l243 113l-243 112l37 66l217 -140l-17 265h76l-16 -265l217 140l37 -66l-244 -112l242 -113l-35 -66l-217 140l16 -269h-76l17 269l-217 -140z" />
<glyph unicode="+" horiz-adv-x="808" d="M80 629v73h285v312h77v-312h287v-73h-287v-312h-77v312h-285z" />
<glyph unicode="," d="M82 -227l80 219q-25 6 -42.5 26.5t-17.5 49.5q0 35 26 58.5t56 23.5q33 0 57.5 -24t24.5 -58q0 -8 -2 -20.5t-6 -18.5l-125 -256h-51z" />
<glyph unicode="-" horiz-adv-x="569" d="M104 426v74h359v-74h-359z" />
<glyph unicode="." d="M102 68q0 35 26 58.5t56 23.5q33 0 57.5 -24t24.5 -58q0 -35 -24.5 -58.5t-57.5 -23.5q-31 0 -56.5 23.5t-25.5 58.5z" />
<glyph unicode="/" horiz-adv-x="901" d="M59 -262l637 1741h84l-637 -1741h-84z" />
<glyph unicode="0" horiz-adv-x="1495" d="M104 696q0 160 48.5 291t134.5 224.5t203.5 145.5t257.5 52q137 0 254.5 -52t203.5 -145.5t135.5 -224.5t49.5 -291t-49.5 -291t-135.5 -224t-203.5 -145t-254.5 -52q-139 0 -257 52t-204 145t-134.5 224.5t-48.5 290.5zM190 696q0 -137 39 -253.5t112 -201.5 t175.5 -133.5t231.5 -48.5q127 0 229 48.5t175 133.5t112 201.5t39 253.5t-39 254t-112 202t-175.5 133t-228.5 48q-129 0 -231.5 -48t-175.5 -133t-112 -201.5t-39 -254.5z" />
<glyph unicode="1" horiz-adv-x="608" d="M80 1319v74h299v-1393h-84v1319h-215z" />
<glyph unicode="2" horiz-adv-x="1062" d="M76 0v8l571 610q88 94 147.5 194.5t59.5 225.5q0 133 -78 214t-217 81q-127 0 -220 -73.5t-122 -225.5l-78 15q12 76 46 142t88.5 114.5t126 76t159.5 27.5q86 0 155.5 -26.5t119 -76t77 -118t27.5 -150.5q0 -70 -20.5 -133t-54.5 -122.5t-77 -114t-90 -105.5l-372 -397 q-16 -18 -36 -36.5t-36 -33.5q-20 -16 -37 -30q23 2 45 4q20 2 43 3t45 1h604v-74h-876z" />
<glyph unicode="3" horiz-adv-x="1105" d="M55 242l68 39q57 -100 155.5 -161t239.5 -61q98 0 174 30t129 83t81 126t28 159t-29 156.5t-82 120.5t-129 79t-172 29q-55 0 -92 -8.5t-66 -18.5l-6 10l385 428q25 27 52 52l28 24q-18 -4 -39 -6q-16 -2 -36.5 -3t-41.5 -1h-536v74h788v-9l-362 -403 q-16 -16 -30.5 -29.5t-24.5 -23.5q-12 -10 -25 -21q115 4 208 -28.5t158.5 -94t100.5 -145.5t35 -182q0 -102 -36 -188.5t-100.5 -150t-155.5 -99t-202 -35.5q-82 0 -153.5 19.5t-131 54t-105.5 81.5t-75 103z" />
<glyph unicode="4" horiz-adv-x="1155" d="M49 285v8l873 1134h8v-1069h143v-73h-143v-285h-84v285h-797zM172 350q27 2 51 4q23 2 47.5 3t46.5 1h529v727v49.5t2 49.5q2 27 4 53q-14 -23 -29 -45q-12 -20 -26.5 -43t-30.5 -43l-494 -645q-14 -18 -30.5 -38t-32.5 -36q-19 -21 -37 -37z" />
<glyph unicode="5" horiz-adv-x="1091" d="M57 225l70 43q55 -92 155.5 -150.5t233.5 -58.5q90 0 163 31t125 85t80.5 128t28.5 162q0 86 -27.5 159.5t-77.5 129t-123 87t-163 31.5q-104 0 -183 -34.5t-142 -94.5l-9 7v643h723v-74h-647v-442q53 35 116.5 52t145.5 17q104 0 191.5 -37t150 -101.5t97 -152.5 t34.5 -190q0 -109 -35.5 -197t-100 -151.5t-154 -98t-193.5 -34.5q-150 0 -271.5 63.5t-187.5 177.5z" />
<glyph unicode="6" horiz-adv-x="1134" d="M104 442q0 88 27 161t80 147l457 643h92l-342 -478q-10 -14 -23.5 -31.5t-27.5 -33.5q-16 -20 -33 -39q53 41 114.5 66.5t129.5 25.5q98 0 182 -36t143.5 -99t93 -147t33.5 -179q0 -96 -33.5 -179t-95 -145.5t-147 -98t-187.5 -35.5t-187 35.5t-146.5 98t-95.5 145.5 t-34 179zM188 442q0 -78 27 -147.5t76 -121.5t119.5 -83t156.5 -31t157 31t120 83t75.5 122t26.5 147q0 78 -25.5 149t-74.5 124t-120 83.5t-159 30.5q-86 0 -156.5 -30.5t-119.5 -82.5t-76 -123t-27 -151z" />
<glyph unicode="7" horiz-adv-x="1101" d="M78 1319v74h956v-9l-706 -1384h-88l673 1319h-835z" />
<glyph unicode="8" horiz-adv-x="1138" d="M82 401q0 150 92 248.5t246 130.5q-102 35 -163.5 111t-61.5 190q0 70 27.5 130.5t77.5 104.5t118.5 68.5t150.5 24.5t152 -24.5t120 -68.5t78.5 -104.5t28.5 -130.5q0 -115 -62.5 -191.5t-164.5 -109.5q152 -35 244 -132t92 -247q0 -92 -37 -168.5t-101.5 -132t-154 -86 t-195.5 -30.5q-104 0 -193 30.5t-154.5 86t-102.5 132t-37 168.5zM168 401q0 -76 28.5 -138t82 -107t127 -71t163.5 -26q92 0 166 26t126 71t81 108.5t29 136.5q0 76 -29 138.5t-81 107.5t-125.5 70.5t-166.5 25.5q-90 0 -163.5 -25.5t-127 -70.5t-82 -107.5t-28.5 -138.5z M276 1079q0 -117 79 -191.5t214 -74.5q137 0 217 75t80 191q0 55 -20.5 102.5t-59 82t-94 54t-123.5 19.5t-122 -19.5t-92 -54t-58.5 -81.5t-20.5 -103z" />
<glyph unicode="9" horiz-adv-x="1134" d="M94 942q0 96 35 181t97.5 148.5t148.5 100.5t190 37t191.5 -37t150 -100.5t97 -148.5t34.5 -181q0 -88 -29.5 -161.5t-80.5 -151.5l-426 -629h-92l325 479q8 12 20.5 26.5t22.5 29.5q12 14 25 30q-57 -45 -117.5 -68.5t-130.5 -23.5q-100 0 -185 37t-146.5 100.5 t-95.5 149.5t-34 182zM178 942q0 -80 25.5 -151.5t76 -126t122 -86t163.5 -31.5q88 0 161 30.5t123 85t77.5 126t27.5 153.5q0 80 -26.5 150.5t-76.5 124t-122 85t-164 31.5q-90 0 -161.5 -31.5t-122 -85t-77 -124t-26.5 -150.5z" />
<glyph unicode=":" horiz-adv-x="389" d="M113 68q0 35 25.5 59.5t56.5 24.5q33 0 57 -25t24 -59q0 -35 -24 -58.5t-57 -23.5q-31 0 -56.5 23.5t-25.5 58.5zM113 520q0 35 25.5 59.5t56.5 24.5q33 0 57 -24.5t24 -59.5t-24 -58.5t-57 -23.5q-31 0 -56.5 23.5t-25.5 58.5z" />
<glyph unicode=";" horiz-adv-x="389" d="M92 -227l80 219q-25 6 -42 26.5t-17 49.5q0 35 25.5 58.5t56.5 23.5q33 0 57 -24t24 -58q0 -8 -2 -20.5t-6 -18.5l-125 -256h-51zM113 520q0 35 25.5 59.5t56.5 24.5q33 0 57 -24.5t24 -59.5t-24 -58.5t-57 -23.5q-31 0 -56.5 23.5t-25.5 58.5z" />
<glyph unicode="&#x3c;" horiz-adv-x="794" d="M86 653v21l596 315v-82l-465 -245l465 -248v-82z" />
<glyph unicode="=" horiz-adv-x="808" d="M92 473v74h625v-74h-625zM92 745v74h625v-74h-625z" />
<glyph unicode="&#x3e;" horiz-adv-x="794" d="M113 332v82l465 245l-465 248v82l596 -321v-21z" />
<glyph unicode="?" horiz-adv-x="919" d="M49 1161q47 123 148.5 185.5t232.5 62.5q82 0 151.5 -25.5t121 -73.5t80 -119t28.5 -163q0 -80 -28.5 -148.5t-80 -118.5t-120 -80t-148.5 -32v-309h-78v379h56q70 0 128 24.5t100 65.5t64.5 97.5t22.5 121.5q0 150 -83 227.5t-214 77.5q-113 0 -186.5 -48t-124.5 -159z M315 63q0 35 25 57.5t53 22.5q31 0 54.5 -22.5t23.5 -57.5q0 -33 -23.5 -55t-54.5 -22q-29 0 -53.5 22.5t-24.5 54.5z" />
<glyph unicode="@" horiz-adv-x="1777" d="M111 379q0 170 61 316.5t166.5 254t248 169t304.5 61.5q166 0 308 -59.5t245.5 -161t163 -239.5t59.5 -294q0 -117 -23.5 -201t-63.5 -136t-92 -76.5t-110 -24.5q-94 0 -150.5 53t-64.5 154q-90 -211 -303 -211q-76 0 -141.5 28.5t-113.5 79.5t-75.5 122t-27.5 153 q0 84 27.5 155.5t75.5 123.5t113.5 82t141.5 30q106 0 181 -56.5t116 -144.5l-4 182h80v-481q0 -96 31.5 -149.5t113.5 -53.5q43 0 82 20.5t67.5 65.5t45 116t16.5 169q0 135 -48 259t-139 218t-220 150.5t-291 56.5q-156 0 -285 -58.5t-221 -157.5t-143.5 -232.5 t-51.5 -282.5q0 -154 51.5 -287t143.5 -231.5t221 -155.5t285 -57q94 0 181 22.5t161 69.5l37 -62q-82 -51 -178.5 -75.5t-200.5 -24.5q-162 0 -304.5 58.5t-248 165t-166.5 254t-61 323.5zM584 367q0 -66 20.5 -122.5t58 -99.5t90 -67.5t113.5 -24.5t114.5 24.5t91.5 67.5 t60.5 99.5t22.5 122.5t-22.5 124t-60.5 102t-91 69.5t-115 25.5q-61 0 -113.5 -25.5t-90 -69.5t-58 -102.5t-20.5 -123.5z" />
<glyph unicode="A" horiz-adv-x="1333" d="M90 0l563 1409h25l565 -1409h-86l-106 270h-770l-107 -270h-84zM309 344h711l-313 795q-8 18 -15.5 39.5t-13.5 42.5q-8 23 -12 45q-4 -23 -13 -45q-6 -20 -13 -42t-15 -40z" />
<glyph unicode="B" horiz-adv-x="1245" d="M211 0v1393h442q98 0 168 -26t116 -71t67.5 -106.5t21.5 -130.5q0 -104 -41 -180t-131 -107q131 -31 210 -131t79 -242q0 -84 -24.5 -156.5t-77 -127t-133.5 -85t-193 -30.5h-504zM295 74h410q98 0 165.5 24.5t109.5 68.5t60.5 103.5t18.5 128.5q0 70 -20.5 129.5 t-63.5 103.5t-110.5 68.5t-162.5 24.5h-407v-651zM295 799h387q74 0 124 19.5t79.5 54t43 83t13.5 103.5t-15.5 102t-50 83t-92 55.5t-139.5 19.5h-350v-520z" />
<glyph unicode="C" horiz-adv-x="1497" d="M117 696q0 160 56 291t152.5 224.5t226.5 145.5t277 52q184 0 324.5 -67.5t228.5 -196.5l-63 -47q-78 111 -201 173t-289 62q-135 0 -249.5 -48t-198.5 -133t-131 -201.5t-47 -254.5q0 -137 47 -253.5t131 -201.5t198.5 -133.5t249.5 -48.5q162 0 292 64.5t214 183.5 l64 -45q-92 -135 -240 -206.5t-330 -71.5q-147 0 -277 52t-226.5 145t-152.5 224.5t-56 290.5z" />
<glyph unicode="D" horiz-adv-x="1386" d="M211 0v1393h297q180 0 321.5 -48.5t239.5 -139.5t149.5 -220t51.5 -289t-51.5 -288.5t-148.5 -220t-239.5 -139.5t-322.5 -48h-297zM295 76h203q172 0 301 46t214 128t127 195.5t42 250.5t-42 251t-127 196t-214 128t-301 46h-203v-1241z" />
<glyph unicode="E" horiz-adv-x="1173" d="M211 0v1393h813v-74h-729v-746h653v-73h-653v-426h758v-74h-842z" />
<glyph unicode="F" horiz-adv-x="1138" d="M211 0v1393h811v-74h-727v-746h659v-75h-659v-498h-84z" />
<glyph unicode="G" horiz-adv-x="1542" d="M90 696q0 158 56.5 289t152.5 225.5t226 146.5t278 52q178 0 327.5 -67.5t237.5 -208.5l-63 -48q-80 125 -208 186.5t-294 61.5q-135 0 -250 -48t-199 -133t-131 -201.5t-47 -254.5q0 -137 48 -253.5t132 -201.5t199 -133.5t250 -48.5q137 0 241.5 39t178 105.5 t115.5 152.5t55 181h-566v75h658q-6 -141 -57.5 -256.5t-140.5 -198.5t-211.5 -128t-272.5 -45q-147 0 -277.5 52t-227.5 146t-153.5 225.5t-56.5 288.5z" />
<glyph unicode="H" horiz-adv-x="1400" d="M211 0v1393h84v-820h811v820h84v-1393h-84v498h-811v-498h-84z" />
<glyph unicode="I" horiz-adv-x="522" d="M219 0v1393h84v-1393h-84z" />
<glyph unicode="J" horiz-adv-x="974" d="M86 168l68 45q43 -74 107.5 -114t150.5 -40q117 0 190.5 71t73.5 218v1045h84v-1049q0 -90 -26.5 -156.5t-73 -112.5t-109.5 -68.5t-137 -22.5q-125 0 -203 53t-125 131z" />
<glyph unicode="K" horiz-adv-x="1202" d="M211 0v1393h84v-744q0 -45 -3 -89.5t-5 -67.5q23 37 47 79.5t37 59.5l602 762h94l-541 -693l594 -700h-104l-543 641l-178 -219v-422h-84z" />
<glyph unicode="L" horiz-adv-x="1048" d="M211 0v1393h84v-1319h670v-74h-754z" />
<glyph unicode="M" horiz-adv-x="1695" d="M131 0l172 1411h16l474 -903q23 -47 38 -84q8 -23 17 -41q8 18 16 41q8 18 17.5 39.5t21.5 44.5l475 903h15l172 -1411h-84l-127 1042q-4 27 -5 59t-3 60q-2 33 -3 64q-10 -29 -20 -56q-10 -25 -21.5 -52t-25.5 -56l-424 -807h-14l-420 809q-14 25 -25.5 53.5t-21.5 52.5 q-10 29 -21 58q0 -31 -2 -64q-2 -29 -3 -60.5t-5 -58.5l-127 -1044h-82z" />
<glyph unicode="N" horiz-adv-x="1472" d="M211 0v1409h25l890 -1155q10 -14 20.5 -29.5t20.5 -29.5q10 -16 23 -33q-2 18 -4 37q-2 16 -2 33.5v33.5v1127h78v-1409h-25l-891 1155q-10 12 -20.5 28.5t-20.5 30.5q-10 16 -22 33q0 -18 2 -37q2 -16 3 -33.5t1 -34.5v-1126h-78z" />
<glyph unicode="O" horiz-adv-x="1658" d="M117 696q0 160 56 291t152.5 224.5t226.5 145.5t277 52t277.5 -52t227 -145.5t152.5 -224.5t56 -291t-56 -291t-152.5 -224t-227 -145t-277.5 -52t-277 52t-226.5 145t-152.5 224.5t-56 290.5zM203 696q0 -137 47 -253.5t131 -201.5t198.5 -133.5t249.5 -48.5t250 48.5 t199 133.5t131 201.5t47 253.5t-47 254t-131 202t-198.5 133t-250.5 48q-135 0 -249.5 -48t-198.5 -133t-131 -201.5t-47 -254.5z" />
<glyph unicode="P" horiz-adv-x="1179" d="M211 0v1393h285q141 0 244.5 -38t172 -107.5t101.5 -165t33 -208.5q0 -111 -33 -205t-101.5 -162.5t-172 -108.5t-244.5 -40h-201v-358h-84zM295 432h192q131 0 221.5 35t146.5 94.5t81 140t25 172.5t-25 174t-81 141.5t-146.5 94.5t-221.5 35h-192v-887z" />
<glyph unicode="Q" horiz-adv-x="1658" d="M117 696q0 160 56 291t152.5 224.5t226.5 145.5t277 52t277.5 -52t227 -145.5t152.5 -224.5t56 -291q0 -154 -52 -281.5t-143.5 -221t-214 -148.5t-264.5 -61v-320h-77v320q-141 6 -264.5 61t-214.5 148.5t-143 221.5t-52 281zM203 696q0 -133 44 -245.5t123 -197.5 t186.5 -136t234.5 -58v316h77v-316q127 6 234.5 57.5t186.5 136.5t123 197.5t44 245.5q0 137 -47 254t-131 202t-198.5 133t-250.5 48q-135 0 -249.5 -48t-198.5 -133t-131 -201.5t-47 -254.5z" />
<glyph unicode="R" horiz-adv-x="1204" d="M211 0v1393h281q141 0 245.5 -40t173 -108.5t102.5 -161t34 -198.5q0 -154 -74 -278t-225 -183l309 -424h-101l-290 397q-78 -18 -174 -18h-197v-379h-84zM295 453h188q131 0 222.5 34.5t148.5 95t82 138.5t25 164t-25 164.5t-82 138t-148.5 95.5t-222.5 36h-188v-866z " />
<glyph unicode="S" horiz-adv-x="1079" d="M76 262l71 35q25 -47 58 -90t80 -76t109.5 -53.5t146.5 -20.5q68 0 128 19.5t105 56.5t71.5 89t26.5 118q0 121 -69.5 196.5t-214.5 143.5l-129 59q-74 33 -128.5 69t-90 78t-54 94t-18.5 118q0 72 26.5 130t73.5 98t108.5 61.5t133.5 21.5q70 0 125 -16.5t98 -44 t76 -64.5t57 -76l-65 -43q-43 70 -109.5 120t-181.5 50q-123 0 -191.5 -64.5t-68.5 -170.5q0 -53 13 -93t43 -73t75 -61.5t111 -59.5l129 -59q170 -78 251.5 -173.5t81.5 -240.5q0 -82 -30.5 -147.5t-85 -111.5t-130 -71.5t-165.5 -25.5q-98 0 -174 23.5t-133.5 63.5 t-96.5 89t-63 102z" />
<glyph unicode="T" horiz-adv-x="1103" d="M68 1319v74h968v-74h-442v-1319h-84v1319h-442z" />
<glyph unicode="U" horiz-adv-x="1333" d="M197 463v930h84v-924q0 -201 106.5 -306.5t278.5 -105.5q86 0 156.5 27t121.5 79t80 129t29 177v924h84v-930q0 -117 -36 -207t-99.5 -150.5t-149.5 -91t-186 -30.5t-186.5 30.5t-149 91t-98 150.5t-35.5 207z" />
<glyph unicode="V" horiz-adv-x="1333" d="M90 1393h90l451 -1137q12 -37 26 -80q8 -23 13 -47q4 25 12 47q6 20 12 42t15 38l450 1137h84l-563 -1409h-25z" />
<glyph unicode="W" horiz-adv-x="1945" d="M84 1393h90l340 -1121q10 -33 16 -65q4 -18 7 -37q4 18 8 37q4 16 8 32.5t10 32.5l400 1137h24l399 -1137q4 -16 9.5 -32.5t9.5 -32.5q4 -18 6 -37q4 18 8 37q6 33 17 65l340 1121h86l-437 -1409h-22l-406 1155q-6 16 -9 33.5t-7 33.5q-4 18 -6 37q-2 -18 -6 -37 q-4 -16 -9.5 -33.5t-9.5 -33.5l-407 -1155h-23z" />
<glyph unicode="X" horiz-adv-x="1275" d="M104 0l488 754l-412 639h96l340 -527q6 -12 15 -32q4 -8 8 -19q4 10 10 19l8.5 17t8.5 15l340 527h90l-412 -637l490 -756h-97l-415 645q-8 12 -17 31l-8 20l-8 -20q-4 -8 -8.5 -16.5t-8.5 -14.5l-417 -645h-91z" />
<glyph unicode="Y" horiz-adv-x="1316" d="M90 1393h94l445 -807q6 -12 12 -27.5t10 -28.5q6 -14 11 -28l12 28q4 12 10 27.5t14 28.5l443 807h88l-527 -961v-432h-86v434z" />
<glyph unicode="Z" horiz-adv-x="1187" d="M92 0v20l846 1299h-737v74h862v-21l-844 -1298h866v-74h-993z" />
<glyph unicode="[" horiz-adv-x="593" d="M170 -262v1741h344v-72h-262v-1597h262v-72h-344z" />
<glyph unicode="\" horiz-adv-x="901" d="M121 1479h84l637 -1741h-84z" />
<glyph unicode="]" horiz-adv-x="593" d="M80 -190h262v1597h-262v72h346v-1741h-346v72z" />
<glyph unicode="^" horiz-adv-x="833" d="M154 965l254 444h18l254 -444h-70l-192 309l-195 -309h-69z" />
<glyph unicode="_" horiz-adv-x="499" d="M-4 -193h508v-69h-508v69z" />
<glyph unicode="`" horiz-adv-x="1024" d="M303 1417h94l154 -399h-68z" />
<glyph unicode="a" horiz-adv-x="1124" d="M106 420q0 92 31 171t86.5 137t130 92t162.5 34q129 0 219 -63.5t137 -161.5l-2 207h80v-836h-80l2 207q-47 -96 -140 -159.5t-216 -63.5q-88 0 -162.5 33.5t-130 92t-86.5 138.5t-31 172zM190 420q0 -78 24 -144.5t68 -115.5t106 -77t140 -28t141.5 28t109.5 76 t70.5 113.5t24.5 143.5t-24.5 144.5t-70.5 115.5t-109.5 77.5t-141.5 28.5t-140 -27.5t-106 -75.5t-68 -114.5t-24 -144.5z" />
<glyph unicode="b" horiz-adv-x="1128" d="M174 0v1479h80v-842q47 94 136 155.5t218 61.5q90 0 166 -34t131.5 -92t86 -137t30.5 -171t-30.5 -172t-86 -138.5t-131.5 -92t-166 -33.5q-123 0 -218 63.5t-140 161.5l4 -209h-80zM248 420q0 -78 24.5 -144.5t70.5 -115.5t110.5 -77t144.5 -28q78 0 140.5 28t107.5 77 t68.5 115.5t23.5 144.5t-23.5 144.5t-68.5 114.5t-107.5 75.5t-140.5 27.5q-80 0 -144.5 -27.5t-110.5 -75.5t-70.5 -114.5t-24.5 -144.5z" />
<glyph unicode="c" horiz-adv-x="950" d="M106 418q0 90 33 169t89.5 138t134 94t167.5 35q106 0 185.5 -38t132.5 -103l-57 -47q-45 55 -106.5 85.5t-154.5 30.5q-78 0 -140 -27.5t-106 -76.5t-69 -115.5t-25 -144.5t25 -143.5t69 -114.5t106.5 -77t139.5 -28q98 0 165 34t112 91l57 -47q-59 -72 -139 -110.5 t-195 -38.5q-90 0 -167.5 33.5t-134 93t-89.5 138.5t-33 169z" />
<glyph unicode="d" horiz-adv-x="1128" d="M106 420q0 92 31 171t86.5 137t131 92t165.5 34q129 0 218 -61.5t136 -155.5v842h80v-1479h-80l5 209q-45 -98 -140.5 -161.5t-218.5 -63.5q-90 0 -165.5 33.5t-131 92t-86.5 138.5t-31 172zM190 420q0 -78 24 -144.5t69 -115.5t107 -77t140 -28q80 0 144.5 28t110.5 77 t71 115.5t25 144.5t-25 144.5t-71 114.5t-110.5 75.5t-144.5 27.5q-78 0 -140 -27.5t-107 -75.5t-69 -114.5t-24 -144.5z" />
<glyph unicode="e" horiz-adv-x="1036" d="M106 418q0 90 32 169t89.5 138t133 94t165.5 35q94 0 171 -35t131 -96t82 -144q27 -78 26 -166v-12h-748q2 -76 28 -139t72 -109.5t110.5 -72t144.5 -25.5q104 0 174.5 37t118.5 94l53 -47q-55 -70 -142.5 -112.5t-203.5 -42.5q-98 0 -179 33.5t-138.5 93t-88.5 138.5 t-31 169zM190 467h664q-4 63 -26.5 121.5t-63.5 101.5t-100.5 68.5t-137.5 25.5q-72 0 -130 -23.5t-101 -66.5t-69.5 -101t-35.5 -126z" />
<glyph unicode="f" horiz-adv-x="583" d="M74 768v68h133v430q0 63 15.5 109t42 75t62 42t74.5 13q72 0 115 -28.5t70 -73.5l-62 -41q-23 33 -47 52.5t-74 19.5q-51 0 -83.5 -36t-32.5 -134v-428h223v-68h-223v-768h-80v768h-133z" />
<glyph unicode="g" horiz-adv-x="1128" d="M106 420q0 92 31 171t86.5 137t131 92t165.5 34q129 0 220 -62.5t139 -160.5l-5 205h80v-875q0 -215 -108.5 -316.5t-296.5 -101.5q-152 0 -256.5 70t-157.5 174l66 37q57 -104 141 -156.5t205 -52.5q158 0 242.5 82t84.5 272v234q-45 -92 -138 -155.5t-216 -63.5 q-90 0 -165.5 33.5t-131 92t-86.5 138.5t-31 172zM190 420q0 -78 24 -144.5t69 -115.5t107 -77t140 -28q80 0 144.5 28t110.5 77t71 115.5t25 144.5t-25 144.5t-71 114.5t-110.5 75.5t-144.5 27.5q-78 0 -140 -27.5t-107 -75.5t-69 -114.5t-24 -144.5z" />
<glyph unicode="h" horiz-adv-x="1042" d="M172 0v1479h80v-822q41 90 124 143.5t193 53.5q141 0 226.5 -88t85.5 -244v-522h-80v508q0 129 -59.5 200.5t-182.5 71.5q-135 0 -221 -83t-86 -230v-467h-80z" />
<glyph unicode="i" horiz-adv-x="425" d="M145 1196q0 29 20.5 48.5t47.5 19.5t47.5 -19.5t20.5 -48.5q0 -31 -20.5 -49.5t-47.5 -18.5t-47.5 18.5t-20.5 49.5zM174 0v836h80v-836h-80z" />
<glyph unicode="j" horiz-adv-x="425" d="M-102 -381l49 51q20 -23 46.5 -39t69.5 -16q49 0 80 35t31 123v1063h80v-1065q0 -117 -54 -171.5t-132 -54.5q-66 0 -106 22.5t-64 51.5zM145 1196q0 29 20.5 48.5t47.5 19.5t47.5 -19.5t20.5 -48.5q0 -31 -20.5 -49.5t-47.5 -18.5t-47.5 18.5t-20.5 49.5z" />
<glyph unicode="k" horiz-adv-x="919" d="M172 0v1479h80v-1041q0 -27 -2 -50t-4 -40l463 488h94l-336 -355l395 -481h-98l-352 428l-160 -168v-260h-80z" />
<glyph unicode="l" horiz-adv-x="448" d="M184 0v1479h80v-1479h-80z" />
<glyph unicode="m" horiz-adv-x="1519" d="M172 0v836h80l-2 -170q39 88 109.5 138t164.5 50q109 0 173.5 -54.5t86.5 -135.5q47 94 124 142t169 48q129 0 204 -79t75 -216v-559h-80v545q0 115 -48 175t-159 60q-113 0 -188.5 -78.5t-75.5 -222.5v-479h-80v545q0 115 -49 175t-160 60q-113 0 -188.5 -78.5 t-75.5 -222.5v-479h-80z" />
<glyph unicode="n" horiz-adv-x="1042" d="M172 0v836h80l-2 -187q41 96 125 150.5t194 54.5q141 0 226.5 -88t85.5 -244v-522h-80v508q0 129 -59.5 200.5t-182.5 71.5q-135 0 -221 -83t-86 -230v-467h-80z" />
<glyph unicode="o" horiz-adv-x="1081" d="M106 420q0 90 34 169t93.5 138t138.5 93t171 34t171 -34t137 -93t91 -138t33 -169t-33 -169t-91 -138.5t-137 -94t-171 -34.5t-171 34.5t-138.5 94t-93.5 138.5t-34 169zM188 420q0 -78 26 -144.5t73 -115.5t112.5 -77t143.5 -28t142.5 28t110.5 77t71.5 115.5 t25.5 144.5t-25.5 144.5t-71.5 114.5t-110.5 75.5t-142.5 27.5t-143.5 -27.5t-112.5 -75.5t-73 -114.5t-26 -144.5z" />
<glyph unicode="p" horiz-adv-x="1128" d="M174 -434v1270h80l-4 -205q47 98 138 160.5t220 62.5q90 0 166 -34t131.5 -92t86 -137t30.5 -171t-30.5 -172t-86 -138.5t-131.5 -92t-166 -33.5q-123 0 -216 63.5t-138 155.5v-637h-80zM248 420q0 -78 24.5 -144.5t70.5 -115.5t110.5 -77t144.5 -28q78 0 140.5 28 t107.5 77t68.5 115.5t23.5 144.5t-23.5 144.5t-68.5 114.5t-107.5 75.5t-140.5 27.5q-80 0 -144.5 -27.5t-110.5 -75.5t-70.5 -114.5t-24.5 -144.5z" />
<glyph unicode="q" horiz-adv-x="1128" d="M106 420q0 92 31 171t86.5 137t131 92t165.5 34q129 0 220 -62.5t139 -160.5l-5 205h80v-1270h-80v637q-45 -92 -138 -155.5t-216 -63.5q-90 0 -165.5 33.5t-131 92t-86.5 138.5t-31 172zM190 420q0 -78 24 -144.5t69 -115.5t107 -77t140 -28q80 0 144.5 28t110.5 77 t71 115.5t25 144.5t-25 144.5t-71 114.5t-110.5 75.5t-144.5 27.5q-78 0 -140 -27.5t-107 -75.5t-69 -114.5t-24 -144.5z" />
<glyph unicode="r" horiz-adv-x="696" d="M172 0v836h80l-2 -168q35 92 99.5 138t144.5 46q94 0 151 -43l-39 -66q-18 14 -47 24.5t-76 10.5q-45 0 -87 -18.5t-73.5 -56t-51 -95t-19.5 -133.5v-475h-80z" />
<glyph unicode="s" horiz-adv-x="829" d="M96 193l70 30q35 -74 97.5 -121t168.5 -47q96 0 152.5 44t56.5 116q0 43 -15.5 71.5t-44 49t-71.5 36t-100 34.5q-53 14 -100.5 32.5t-82 46t-55 66.5t-20.5 94q0 45 19 84t53 66.5t79 43t98 15.5q98 0 162 -43t105 -115l-62 -37q-31 53 -82 89t-123 36q-80 0 -127 -37.5 t-47 -97.5q0 -37 10.5 -61.5t36 -44t66.5 -35.5t102 -35q57 -16 107.5 -36.5t88.5 -50.5t60.5 -71t22.5 -98q0 -100 -74 -166.5t-215 -66.5q-66 0 -120 16t-96 45t-71.5 67t-48.5 81z" />
<glyph unicode="t" horiz-adv-x="641" d="M74 768v68h131v436h80v-436h241v-68h-241v-545q0 -92 29.5 -130t82.5 -38q55 0 83 18.5t50 43.5l52 -49q-31 -35 -72 -59.5t-113 -24.5q-80 0 -136 55t-56 182v547h-131z" />
<glyph unicode="u" horiz-adv-x="1028" d="M164 367v469h80v-463q0 -154 64.5 -235t205.5 -81t205.5 81t64.5 235v463h80v-469q0 -186 -95 -284.5t-255 -98.5t-255 98t-95 285z" />
<glyph unicode="v" horiz-adv-x="917" d="M66 836h86l276 -627q6 -16 13.5 -34.5t11.5 -35.5q6 -20 12 -37q4 16 10 37q4 16 10.5 35t14.5 35l270 627h82l-377 -852h-24z" />
<glyph unicode="w" horiz-adv-x="1392" d="M66 836h86l221 -603q6 -16 11 -33.5t9 -33.5q6 -18 10 -35q4 16 11 35q4 16 9 33.5t13 33.5l250 611h19l253 -608q6 -16 13.5 -34t11.5 -34q6 -18 10 -35q2 16 8 35q4 16 9.5 33.5t11.5 34.5l221 600h82l-324 -852h-20l-254 622q-6 14 -12 31.5t-10 32.5q-6 16 -9 32 l-8 -32l-9 -31.5t-11 -32.5l-258 -622h-21z" />
<glyph unicode="x" horiz-adv-x="921" d="M78 0l336 446l-289 390h96l201 -273q8 -10 15 -21.5t14 -21.5q8 -12 12 -24q4 12 10 24q4 10 11.5 21.5t15.5 21.5l205 273h88l-287 -383l338 -453h-96l-248 338q-8 10 -14.5 21.5t-12.5 21.5q-8 12 -14 25q-6 -12 -15 -25q-12 -23 -26 -43l-252 -338h-88z" />
<glyph unicode="y" horiz-adv-x="919" d="M66 836h86l292 -619q6 -16 12.5 -33.5t10.5 -31.5q6 -18 10 -33q2 14 8 33q4 14 9.5 31.5t13.5 33.5l264 619h82l-547 -1270h-82l211 495z" />
<glyph unicode="z" horiz-adv-x="831" d="M74 0v20l561 746h-504v70h627v-23l-561 -743h561v-70h-684z" />
<glyph unicode="{" horiz-adv-x="706" d="M51 502v71h117q57 0 89 30t32 116v465q0 92 21.5 149.5t56 89t78.5 44t92 12.5h90v-72h-88q-37 0 -69 -10.5t-53.5 -35t-33.5 -67.5t-12 -110v-471q0 -88 -31 -125t-76 -49q45 -10 76 -50t31 -127v-329q0 -68 12 -111t33.5 -67.5t53.5 -34.5t69 -10h88v-72h-90 q-47 0 -91.5 12t-79 44t-56 89.5t-21.5 149.5v323q0 86 -32 116t-89 30h-117z" />
<glyph unicode="|" horiz-adv-x="446" d="M184 -262v1741h78v-1741h-78z" />
<glyph unicode="}" horiz-adv-x="704" d="M80 -190h88q37 0 67.5 10t52 34.5t34 67.5t12.5 111v329q0 88 30.5 126t77.5 49q-47 10 -77.5 50t-30.5 128v469q0 68 -12.5 110.5t-34 67t-52 35t-67.5 10.5h-88v72h90q45 0 90 -12.5t79 -44t55.5 -89t21.5 -149.5v-463q0 -86 32.5 -117t90.5 -31h114v-71h-114 q-57 0 -90 -29t-33 -115v-325q0 -92 -21.5 -149.5t-55.5 -89.5t-79 -44t-90 -12h-90v72z" />
<glyph unicode="~" horiz-adv-x="790" d="M121 483q4 94 45 146.5t108 52.5q45 0 76 -20.5t70 -57.5q39 -39 56.5 -50t43.5 -11q68 0 80 133l70 -6q-4 -94 -42 -145.5t-110 -51.5q-45 0 -75.5 21.5t-69.5 58.5q-20 18 -33.5 30.5t-24 18.5t-20.5 8t-23 2q-70 0 -82 -135z" />
<glyph unicode="&#xa1;" horiz-adv-x="458" d="M152 1329q0 33 23 55.5t54 22.5q29 0 53.5 -22.5t24.5 -55.5q0 -35 -24.5 -57.5t-53.5 -22.5q-31 0 -54 22.5t-23 57.5zM184 0l15 1044h61l14 -1044h-90z" />
<glyph unicode="&#xa2;" horiz-adv-x="950" d="M106 418q0 84 29 158.5t79 133t118.5 95.5t150.5 45v221h70v-217q98 -4 171 -41t124 -100l-57 -47q-41 53 -97.5 82.5t-140.5 33.5v-727q90 4 151.5 38t102.5 87l57 -47q-55 -70 -131 -107.5t-180 -41.5v-222h-70v224q-82 8 -150.5 46t-118.5 95t-79 132t-29 159z M190 418q0 -72 20.5 -133.5t59.5 -109.5t92.5 -78.5t120.5 -39.5v721q-68 -8 -121 -38.5t-92 -78t-59.5 -110t-20.5 -133.5z" />
<glyph unicode="&#xa3;" horiz-adv-x="1193" d="M53 158q0 86 58.5 130t140.5 44q53 0 97 -16.5t85 -43.5q-4 82 -23.5 155t-45.5 142h-207v70h178q-35 86 -62.5 175t-27.5 194q0 84 29.5 157.5t84 128t131 85t168.5 30.5q147 0 243.5 -64.5t150.5 -181.5l-72 -35q-47 100 -122 152.5t-200 52.5q-76 0 -136 -24.5 t-103 -68.5t-65.5 -103.5t-22.5 -128.5q0 -104 26.5 -193.5t59.5 -175.5h395v-70h-369q27 -72 46.5 -148.5t19.5 -164.5v-18.5t-2 -18.5q35 -29 70.5 -57.5t75.5 -51t85 -37t99 -14.5q82 0 127 29t86 84l63 -45q-53 -72 -114.5 -107.5t-161.5 -35.5q-55 0 -103.5 14 t-91.5 37.5t-81 52.5t-75 57q-31 -72 -93 -116.5t-140 -44.5q-39 0 -75 11t-63.5 33.5t-45 54.5t-17.5 75zM127 160q0 -53 37 -80t92 -27q63 0 109.5 35.5t62.5 101.5q-43 31 -85 51.5t-89 20.5q-53 0 -90 -26.5t-37 -75.5z" />
<glyph unicode="&#xa4;" horiz-adv-x="1511" d="M78 473v70h203q-12 74 -13 153v32.5t2 33.5h-192v69h201q18 127 72.5 233.5t134 183.5t183 119t222.5 42q88 0 160.5 -17.5t131 -50t104.5 -78.5t81 -104l-61 -41q-35 51 -74 92t-88 68t-111.5 41t-142.5 14q-104 0 -193.5 -36.5t-157 -103.5t-112.5 -159t-63 -203h700 v-69h-709q-2 -16 -2 -32.5v-33.5q0 -80 13 -153h698v-70h-682q27 -92 75 -169t113.5 -131t148.5 -84t179 -30q94 0 167 23.5t127 60.5t93 84t68 95l65 -39q-31 -55 -75 -109.5t-106 -96.5t-145 -67.5t-194 -25.5t-207 34.5t-175 99t-135 154.5t-85 201h-219z" />
<glyph unicode="&#xa5;" horiz-adv-x="1212" d="M76 1393h90l405 -807q8 -16 15.5 -33.5t11.5 -32.5q6 -18 10 -33q4 14 10 33q4 14 11.5 31.5t15.5 34.5l406 807h86l-379 -752h327v-68h-360l-76 -149v-70h436v-67h-436v-287h-84v287h-436v67h436v68l-76 151h-360v68h326z" />
<glyph unicode="&#xa6;" d="M102 485q0 35 26 58.5t56 23.5q33 0 57.5 -23.5t24.5 -58.5t-24.5 -58.5t-57.5 -23.5q-31 0 -56.5 24t-25.5 58z" />
<glyph unicode="&#xa7;" horiz-adv-x="1112" d="M80 651q0 84 45 149.5t125 106.5q-45 74 -45 174q0 74 27.5 134.5t76.5 103.5t114.5 66.5t141.5 23.5q135 0 226.5 -63.5t132.5 -153.5l-68 -37q-39 76 -110.5 127t-180.5 51q-127 0 -200.5 -69.5t-73.5 -182.5q0 -59 15.5 -101t45 -74t70.5 -56.5t94 -46.5l221 -98 q160 -72 227.5 -150t67.5 -186q0 -84 -50 -145.5t-136 -96.5q29 -37 44 -81t15 -97q0 -66 -21.5 -124t-66.5 -101t-112.5 -68t-161.5 -25q-135 0 -236.5 64.5t-154.5 157.5l69 41q47 -84 126 -135.5t196 -51.5q145 0 210.5 67.5t65.5 176.5q0 100 -65.5 158.5t-169.5 105.5 l-213 94q-152 66 -221.5 143.5t-69.5 198.5zM162 655q0 -98 57 -156.5t184 -115.5l213 -94q53 -23 100.5 -50.5t82.5 -60.5q68 23 109.5 74t41.5 117q0 86 -57 144t-188 118l-222 98q-57 25 -107 56.5t-89 72.5q-59 -33 -92 -87t-33 -116z" />
<glyph unicode="&#xa8;" horiz-adv-x="1024" d="M291 1133q0 29 19.5 47t45.5 18q27 0 46.5 -18.5t19.5 -46.5q0 -29 -19.5 -47.5t-46.5 -18.5t-46 18.5t-19 47.5zM602 1133q0 29 19.5 47t46.5 18t46 -18.5t19 -46.5q0 -29 -19 -47.5t-46 -18.5t-46.5 18.5t-19.5 47.5z" />
<glyph unicode="&#xa9;" horiz-adv-x="1609" d="M90 696q0 154 57.5 285t155.5 226.5t227 148.5t275 53q143 0 273 -53t228.5 -148.5t156 -226.5t57.5 -285t-57.5 -284.5t-156 -226t-228.5 -148.5t-273 -53q-145 0 -274.5 53t-227.5 148.5t-155.5 226.5t-57.5 284zM160 696q0 -141 50 -260t138 -205t206 -135t251 -49 t251 49t205 135t138 205t51 260t-51 260t-138 205t-205 135.5t-251 49.5t-251 -49.5t-206 -135.5t-138 -204.5t-50 -260.5zM375 692q0 94 34.5 175t95 140.5t141.5 92.5t171 33q111 0 198 -43t140 -121l-61 -47q-43 61 -115 98t-160 37q-76 0 -141.5 -28t-113.5 -76 t-75.5 -114.5t-27.5 -146.5t27.5 -146.5t75.5 -114.5t113.5 -74.5t141.5 -26.5q90 0 163 38t120 103l63 -43q-55 -84 -146 -129t-202 -45q-90 0 -171 32.5t-141.5 91t-95 138.5t-34.5 176z" />
<glyph unicode="&#xaa;" horiz-adv-x="798" d="M88 891q0 55 22.5 95t61.5 66.5t89 39t106 12.5h237v10q0 68 -13 112t-39 69.5t-60.5 35.5t-77.5 10q-90 0 -142.5 -37.5t-85.5 -80.5l-51 39q41 66 112.5 106.5t166.5 40.5q57 0 106 -15.5t85 -49t56.5 -89t20.5 -133.5v-436h-78v96q-35 -51 -97.5 -81.5t-146.5 -30.5 q-117 0 -194.5 55t-77.5 166zM168 891q0 -84 56.5 -119t148.5 -35q43 0 85 11.5t74.5 34t52 57t19.5 82.5v116h-227q-86 0 -147.5 -31.5t-61.5 -115.5z" />
<glyph unicode="&#xab;" horiz-adv-x="710" d="M84 397v17l190 315h93l-195 -323l195 -324h-93zM344 397v17l191 315h92l-195 -323l195 -324h-92z" />
<glyph unicode="&#xac;" d="M102 485q0 35 26 58.5t56 23.5q33 0 57.5 -23.5t24.5 -58.5t-24.5 -58.5t-57.5 -23.5q-31 0 -56.5 24t-25.5 58z" />
<glyph unicode="&#xad;" horiz-adv-x="569" d="M104 426v74h359v-74h-359z" />
<glyph unicode="&#xae;" horiz-adv-x="1062" d="M86 989q0 94 35 175t95 139.5t141 91t171 32.5q92 0 174 -32.5t142.5 -91t96.5 -139.5t36 -175t-36 -174t-96.5 -138.5t-142.5 -91t-174 -32.5q-90 0 -171 32.5t-141 91t-95 138.5t-35 174zM158 989q0 -84 27.5 -153.5t76.5 -118.5t117.5 -77t148.5 -28q82 0 152 28 t120 77t78.5 118.5t28.5 153.5t-28.5 153.5t-78.5 120t-120 78t-152 27.5q-80 0 -148.5 -27.5t-117.5 -78t-76.5 -120t-27.5 -153.5zM377 741v504h131q115 0 166 -57.5t51 -136.5q0 -53 -26.5 -97.5t-80.5 -66.5l107 -146h-80l-92 127q-10 -2 -21.5 -3t-23.5 -1h-64v-123 h-67zM444 920h60q86 0 118.5 35.5t32.5 95.5q0 59 -32.5 99t-118.5 40h-60v-270z" />
<glyph unicode="&#xaf;" horiz-adv-x="1024" d="M313 1044v70h398v-70h-398z" />
<glyph unicode="&#xb0;" horiz-adv-x="745" d="M113 1151q0 55 20.5 102t56 82t82.5 54.5t103 19.5q55 0 102 -19.5t82 -54.5t54.5 -82t19.5 -102q0 -53 -19.5 -100t-54.5 -82t-82 -54.5t-102 -19.5t-102.5 19.5t-83 54.5t-56 82t-20.5 100zM188 1151q0 -82 50.5 -135t136.5 -53q84 0 134 53t50 135t-50 136t-134 54 q-86 0 -136.5 -54t-50.5 -136z" />
<glyph unicode="&#xb1;" horiz-adv-x="1458" d="M74 766v70h133v389q0 129 58.5 184t137.5 55q76 0 117 -27.5t70 -70.5l-60 -45q-23 33 -47 52.5t-77 19.5t-86 -35t-33 -135v-387h413v430q0 129 58.5 184t138.5 55q76 0 117 -27.5t69 -70.5l-59 -45q-23 33 -47.5 52.5t-77.5 19.5t-86 -35t-33 -135v-428h224v-70h-224 v-766h-80v766h-413v-766h-80v766h-133zM1194 0v1479h80v-1479h-80z" />
<glyph unicode="&#xb2;" d="M102 485q0 35 26 58.5t56 23.5q33 0 57.5 -23.5t24.5 -58.5t-24.5 -58.5t-57.5 -23.5q-31 0 -56.5 24t-25.5 58z" />
<glyph unicode="&#xb3;" d="M102 485q0 35 26 58.5t56 23.5q33 0 57.5 -23.5t24.5 -58.5t-24.5 -58.5t-57.5 -23.5q-31 0 -56.5 24t-25.5 58z" />
<glyph unicode="&#xb4;" horiz-adv-x="1024" d="M473 1018l154 399h94l-180 -399h-68z" />
<glyph unicode="&#xb5;" d="M102 485q0 35 26 58.5t56 23.5q33 0 57.5 -23.5t24.5 -58.5t-24.5 -58.5t-57.5 -23.5q-31 0 -56.5 24t-25.5 58z" />
<glyph unicode="&#xb6;" horiz-adv-x="1200" d="M123 1036q0 74 25.5 138.5t72.5 113.5t113.5 77t148.5 28h506v-1393h-82v1319h-176v-1319h-84v680h-164q-82 0 -148.5 27.5t-113.5 77t-72.5 114t-25.5 137.5zM211 1036q0 -59 17.5 -111.5t52 -90t85 -59t117.5 -21.5h164v565h-164q-68 0 -118 -21.5t-84.5 -59.5t-52 -90 t-17.5 -112z" />
<glyph unicode="&#xb7;" d="M102 485q0 35 26 58.5t56 23.5q33 0 57.5 -23.5t24.5 -58.5t-24.5 -58.5t-57.5 -23.5q-31 0 -56.5 24t-25.5 58z" />
<glyph unicode="&#xb8;" horiz-adv-x="1024" d="M330 -348l61 37q16 -35 45 -61.5t84 -26.5q43 0 75 26.5t32 79.5q0 45 -30 79t-97 34h-31v180h74v-121q63 -8 113.5 -53t50.5 -121q0 -43 -15.5 -74.5t-41 -53t-59.5 -33t-69 -11.5q-74 0 -122 36t-70 83z" />
<glyph unicode="&#xb9;" d="M102 485q0 35 26 58.5t56 23.5q33 0 57.5 -23.5t24.5 -58.5t-24.5 -58.5t-57.5 -23.5q-31 0 -56.5 24t-25.5 58z" />
<glyph unicode="&#xba;" horiz-adv-x="905" d="M88 1040q0 78 28.5 145.5t78 117t116 78t142.5 28.5t142.5 -28.5t115.5 -78t77.5 -117t28.5 -145.5q0 -80 -28.5 -147.5t-77.5 -116.5t-115.5 -76.5t-142.5 -27.5t-142.5 27.5t-116 76.5t-78 117t-28.5 147zM168 1040q0 -66 20.5 -121t58.5 -95t90.5 -62.5t115.5 -22.5 t115.5 22.5t90 62.5t58 95.5t20.5 120.5q0 66 -20.5 121.5t-58 95t-90 62t-115.5 22.5t-115.5 -22.5t-90.5 -62t-58.5 -95t-20.5 -121.5z" />
<glyph unicode="&#xbb;" horiz-adv-x="710" d="M84 82l195 324l-195 323h92l191 -315v-17l-191 -315h-92zM344 82l195 324l-195 323h92l191 -315v-17l-191 -315h-92z" />
<glyph unicode="&#xbc;" d="M102 485q0 35 26 58.5t56 23.5q33 0 57.5 -23.5t24.5 -58.5t-24.5 -58.5t-57.5 -23.5q-31 0 -56.5 24t-25.5 58z" />
<glyph unicode="&#xbd;" d="M102 485q0 35 26 58.5t56 23.5q33 0 57.5 -23.5t24.5 -58.5t-24.5 -58.5t-57.5 -23.5q-31 0 -56.5 24t-25.5 58z" />
<glyph unicode="&#xbe;" d="M102 485q0 35 26 58.5t56 23.5q33 0 57.5 -23.5t24.5 -58.5t-24.5 -58.5t-57.5 -23.5q-31 0 -56.5 24t-25.5 58z" />
<glyph unicode="&#xbf;" horiz-adv-x="919" d="M109 365q0 80 28.5 148.5t79.5 118.5t120 78.5t148 32.5v310h78v-379h-55q-72 0 -129 -24.5t-99 -65.5t-64.5 -98.5t-22.5 -120.5q0 -150 82.5 -228t213.5 -78q113 0 187 48.5t125 158.5l69 -35q-47 -123 -148 -185t-233 -62q-82 0 -151.5 25.5t-120.5 73.5t-79.5 118.5 t-28.5 163.5zM449 1329q0 33 23 55.5t54 22.5q29 0 53.5 -22.5t24.5 -55.5q0 -35 -24.5 -57.5t-53.5 -22.5q-31 0 -54 22.5t-23 57.5z" />
<glyph unicode="&#xc0;" horiz-adv-x="1333" d="M90 0l563 1409h25l565 -1409h-86l-106 270h-770l-107 -270h-84zM309 344h711l-313 795q-8 18 -15.5 39.5t-13.5 42.5q-8 23 -12 45q-4 -23 -13 -45q-6 -20 -13 -42t-15 -40zM451 1946h94l153 -400h-67z" />
<glyph unicode="&#xc1;" horiz-adv-x="1333" d="M90 0l563 1409h25l565 -1409h-86l-106 270h-770l-107 -270h-84zM309 344h711l-313 795q-8 18 -15.5 39.5t-13.5 42.5q-8 23 -12 45q-4 -23 -13 -45q-6 -20 -13 -42t-15 -40zM635 1546l153 400h95l-181 -400h-67z" />
<glyph unicode="&#xc2;" horiz-adv-x="1333" d="M90 0l563 1409h25l565 -1409h-86l-106 270h-770l-107 -270h-84zM309 344h711l-313 795q-8 18 -15.5 39.5t-13.5 42.5q-8 23 -12 45q-4 -23 -13 -45q-6 -20 -13 -42t-15 -40zM424 1540l231 373h19l231 -373h-71l-168 244l-170 -244h-72z" />
<glyph unicode="&#xc3;" horiz-adv-x="1333" d="M90 0l563 1409h25l565 -1409h-86l-106 270h-770l-107 -270h-84zM309 344h711l-313 795q-8 18 -15.5 39.5t-13.5 42.5q-8 23 -12 45q-4 -23 -13 -45q-6 -20 -13 -42t-15 -40zM391 1536q4 94 45 146.5t109 52.5q45 0 75.5 -20.5t69.5 -57.5q39 -39 56.5 -50.5t44.5 -11.5 q68 0 79 134l70 -7q-4 -94 -42 -145t-110 -51q-45 0 -75.5 21.5t-69.5 58.5q-20 18 -33.5 30.5t-24 18.5t-20.5 8t-22 2q-70 0 -82 -135z" />
<glyph unicode="&#xc4;" horiz-adv-x="1333" d="M90 0l563 1409h25l565 -1409h-86l-106 270h-770l-107 -270h-84zM309 344h711l-313 795q-8 18 -15.5 39.5t-13.5 42.5q-8 23 -12 45q-4 -23 -13 -45q-6 -20 -13 -42t-15 -40zM444 1661q0 29 19.5 47t46.5 18t46 -18t19 -47t-19 -47.5t-46 -18.5t-46.5 18.5t-19.5 47.5z M756 1661q0 29 19.5 47t45.5 18q27 0 46.5 -18t19.5 -47t-19.5 -47.5t-46.5 -18.5t-46 18.5t-19 47.5z" />
<glyph unicode="&#xc5;" horiz-adv-x="1333" d="M90 0l563 1409h25l565 -1409h-86l-106 270h-770l-107 -270h-84zM309 344h711l-313 795q-8 18 -15.5 39.5t-13.5 42.5q-8 23 -12 45q-4 -23 -13 -45q-6 -20 -13 -42t-15 -40zM473 1679q0 39 15.5 74t41 60.5t60.5 40t76 14.5q39 0 74.5 -14.5t61 -40t41 -60.5t15.5 -74 t-15.5 -73.5t-41 -60t-61 -40t-74.5 -14.5q-41 0 -76 14.5t-60.5 40t-41 60t-15.5 73.5zM547 1679q0 -57 33 -91t86 -34t85.5 34t32.5 91t-32.5 91t-85.5 34t-86 -33.5t-33 -91.5z" />
<glyph unicode="&#xc6;" horiz-adv-x="1916" d="M66 0l917 1393h784v-74h-729v-746h654v-73h-654v-426h758v-74h-842v270h-618l-178 -270h-92zM385 344h569v741q0 27 1 54.5t3 52.5q2 27 7 55q-14 -25 -27 -49q-12 -23 -25.5 -47.5t-29.5 -46.5z" />
<glyph unicode="&#xc7;" horiz-adv-x="1497" d="M117 696q0 160 56 291t152.5 224.5t226.5 145.5t277 52q184 0 324.5 -67.5t228.5 -196.5l-63 -47q-78 111 -201 173t-289 62q-135 0 -249.5 -48t-198.5 -133t-131 -201.5t-47 -254.5q0 -137 47 -253.5t131 -201.5t198.5 -133.5t249.5 -48.5q162 0 292 64.5t214 183.5 l64 -45q-92 -135 -239.5 -206.5t-330.5 -71.5h-16v-105q63 -8 113.5 -53t50.5 -121q0 -43 -15.5 -74.5t-41 -53t-59.5 -33t-68 -11.5q-74 0 -122 36t-71 83l62 37q16 -35 44.5 -61.5t84.5 -26.5q43 0 74.5 26.5t31.5 79.5q0 45 -29.5 79t-97.5 34h-31v168 q-131 14 -244.5 72.5t-197.5 150.5t-132 215t-48 270z" />
<glyph unicode="&#xc8;" horiz-adv-x="1173" d="M211 0v1393h813v-74h-729v-746h653v-73h-653v-426h758v-74h-842zM418 1946h94l154 -400h-68z" />
<glyph unicode="&#xc9;" horiz-adv-x="1173" d="M211 0v1393h813v-74h-729v-746h653v-73h-653v-426h758v-74h-842zM573 1546l154 400h94l-180 -400h-68z" />
<glyph unicode="&#xca;" horiz-adv-x="1173" d="M211 0v1393h813v-74h-729v-746h653v-73h-653v-426h758v-74h-842zM387 1540l231 373h19l231 -373h-71l-168 244l-170 -244h-72z" />
<glyph unicode="&#xcb;" horiz-adv-x="1173" d="M211 0v1393h813v-74h-729v-746h653v-73h-653v-426h758v-74h-842zM406 1661q0 29 19 47t46 18t46.5 -18t19.5 -47t-19.5 -47.5t-46.5 -18.5t-46 18.5t-19 47.5zM717 1661q0 29 19.5 47t45.5 18q27 0 46.5 -18t19.5 -47t-19.5 -47.5t-46.5 -18.5t-46 18.5t-19 47.5z" />
<glyph unicode="&#xcc;" horiz-adv-x="522" d="M43 1946h94l154 -400h-68zM219 0v1393h84v-1393h-84z" />
<glyph unicode="&#xcd;" horiz-adv-x="522" d="M219 0v1393h84v-1393h-84zM229 1546l154 400h94l-180 -400h-68z" />
<glyph unicode="&#xce;" horiz-adv-x="522" d="M18 1540l232 373h18l232 -373h-72l-168 244l-170 -244h-72zM219 0v1393h84v-1393h-84z" />
<glyph unicode="&#xcf;" horiz-adv-x="522" d="M39 1661q0 29 19.5 47t45.5 18q27 0 46.5 -18t19.5 -47t-19.5 -47.5t-46.5 -18.5t-46 18.5t-19 47.5zM219 0v1393h84v-1393h-84zM350 1661q0 29 19.5 47t46.5 18t46 -18t19 -47t-19 -47.5t-46 -18.5t-46.5 18.5t-19.5 47.5z" />
<glyph unicode="&#xd0;" horiz-adv-x="1386" d="M31 500v73h180v820h321q174 0 310.5 -51.5t231.5 -143.5t145.5 -220t50.5 -282t-50.5 -281.5t-144.5 -220t-231 -143.5t-312 -51h-321v500h-180zM295 76h227q166 0 289 46t206 128t124 195.5t41 250.5t-41 251t-124 196t-206 128t-289 46h-227v-744h405v-73h-405v-424z " />
<glyph unicode="&#xd1;" horiz-adv-x="1472" d="M211 0v1409h25l890 -1155q10 -14 20.5 -29.5t20.5 -29.5q10 -16 23 -33q-2 18 -4 37q-2 16 -2 33.5v33.5v1127h78v-1409h-25l-891 1155q-10 12 -20.5 28.5t-20.5 30.5q-10 16 -22 33q0 -18 2 -37q2 -16 3 -33.5t1 -34.5v-1126h-78zM461 1536q4 94 45 146.5t108 52.5 q45 0 76 -20.5t70 -57.5q39 -39 56.5 -50.5t43.5 -11.5q68 0 80 134l70 -7q-4 -94 -42 -145t-110 -51q-45 0 -75.5 21.5t-69.5 58.5q-20 18 -33.5 30.5t-24 18.5t-20.5 8t-23 2q-70 0 -82 -135z" />
<glyph unicode="&#xd2;" horiz-adv-x="1658" d="M117 696q0 160 56 291t152.5 224.5t226.5 145.5t277 52t277.5 -52t227 -145.5t152.5 -224.5t56 -291t-56 -291t-152.5 -224t-227 -145t-277.5 -52t-277 52t-226.5 145t-152.5 224.5t-56 290.5zM203 696q0 -137 47 -253.5t131 -201.5t198.5 -133.5t249.5 -48.5t250 48.5 t199 133.5t131 201.5t47 253.5t-47 254t-131 202t-198.5 133t-250.5 48q-135 0 -249.5 -48t-198.5 -133t-131 -201.5t-47 -254.5zM621 1946h94l153 -400h-67z" />
<glyph unicode="&#xd3;" horiz-adv-x="1658" d="M117 696q0 160 56 291t152.5 224.5t226.5 145.5t277 52t277.5 -52t227 -145.5t152.5 -224.5t56 -291t-56 -291t-152.5 -224t-227 -145t-277.5 -52t-277 52t-226.5 145t-152.5 224.5t-56 290.5zM203 696q0 -137 47 -253.5t131 -201.5t198.5 -133.5t249.5 -48.5t250 48.5 t199 133.5t131 201.5t47 253.5t-47 254t-131 202t-198.5 133t-250.5 48q-135 0 -249.5 -48t-198.5 -133t-131 -201.5t-47 -254.5zM791 1546l153 400h94l-180 -400h-67z" />
<glyph unicode="&#xd4;" horiz-adv-x="1658" d="M117 696q0 160 56 291t152.5 224.5t226.5 145.5t277 52t277.5 -52t227 -145.5t152.5 -224.5t56 -291t-56 -291t-152.5 -224t-227 -145t-277.5 -52t-277 52t-226.5 145t-152.5 224.5t-56 290.5zM203 696q0 -137 47 -253.5t131 -201.5t198.5 -133.5t249.5 -48.5t250 48.5 t199 133.5t131 201.5t47 253.5t-47 254t-131 202t-198.5 133t-250.5 48q-135 0 -249.5 -48t-198.5 -133t-131 -201.5t-47 -254.5zM588 1540l231 373h19l231 -373h-72l-168 244l-170 -244h-71z" />
<glyph unicode="&#xd5;" horiz-adv-x="1658" d="M117 696q0 160 56 291t152.5 224.5t226.5 145.5t277 52t277.5 -52t227 -145.5t152.5 -224.5t56 -291t-56 -291t-152.5 -224t-227 -145t-277.5 -52t-277 52t-226.5 145t-152.5 224.5t-56 290.5zM203 696q0 -137 47 -253.5t131 -201.5t198.5 -133.5t249.5 -48.5t250 48.5 t199 133.5t131 201.5t47 253.5t-47 254t-131 202t-198.5 133t-250.5 48q-135 0 -249.5 -48t-198.5 -133t-131 -201.5t-47 -254.5zM555 1536q4 94 45 146.5t109 52.5q45 0 75.5 -20.5t69.5 -57.5q39 -39 56.5 -50.5t43.5 -11.5q68 0 80 134l70 -7q-4 -94 -42 -145t-110 -51 q-45 0 -75.5 21.5t-69.5 58.5q-20 18 -33.5 30.5t-24 18.5t-20.5 8t-22 2q-70 0 -82 -135z" />
<glyph unicode="&#xd6;" horiz-adv-x="1658" d="M117 696q0 160 56 291t152.5 224.5t226.5 145.5t277 52t277.5 -52t227 -145.5t152.5 -224.5t56 -291t-56 -291t-152.5 -224t-227 -145t-277.5 -52t-277 52t-226.5 145t-152.5 224.5t-56 290.5zM203 696q0 -137 47 -253.5t131 -201.5t198.5 -133.5t249.5 -48.5t250 48.5 t199 133.5t131 201.5t47 253.5t-47 254t-131 202t-198.5 133t-250.5 48q-135 0 -249.5 -48t-198.5 -133t-131 -201.5t-47 -254.5zM608 1661q0 29 19.5 47t46.5 18t46 -18t19 -47t-19 -47.5t-46 -18.5t-46.5 18.5t-19.5 47.5zM920 1661q0 29 19 47t46 18t46.5 -18t19.5 -47 t-19.5 -47.5t-46.5 -18.5t-46 18.5t-19 47.5z" />
<glyph unicode="&#xd7;" d="M102 485q0 35 26 58.5t56 23.5q33 0 57.5 -23.5t24.5 -58.5t-24.5 -58.5t-57.5 -23.5q-31 0 -56.5 24t-25.5 58z" />
<glyph unicode="&#xd8;" horiz-adv-x="1658" d="M117 696q0 154 56 285t152.5 226.5t226.5 148.5t277 53q139 0 260 -46t218 -132l178 180l51 -49l-178 -180q86 -94 135 -217t49 -269q0 -154 -56 -284.5t-152.5 -226t-226.5 -148.5t-278 -53q-139 0 -261 46t-216 132l-180 -182l-51 49l180 182q-86 94 -135 217t-49 268z M203 696q0 -127 41 -235.5t112 -192.5l895 908q-82 74 -189.5 115.5t-232.5 41.5q-135 0 -249.5 -48t-198.5 -133t-131 -201.5t-47 -254.5zM406 217q84 -74 191 -116t232 -42q135 0 250 48.5t199 133.5t131 201.5t47 253.5q0 127 -41 235.5t-112 192.5z" />
<glyph unicode="&#xd9;" horiz-adv-x="1333" d="M197 463v930h84v-924q0 -201 106.5 -306.5t278.5 -105.5q86 0 156.5 27t121.5 79t80 129t29 177v924h84v-930q0 -117 -36 -207t-99.5 -150.5t-149.5 -91t-186 -30.5t-186.5 30.5t-149 91t-98 150.5t-35.5 207zM457 1946h94l154 -400h-68z" />
<glyph unicode="&#xda;" horiz-adv-x="1333" d="M197 463v930h84v-924q0 -201 106.5 -306.5t278.5 -105.5q86 0 156.5 27t121.5 79t80 129t29 177v924h84v-930q0 -117 -36 -207t-99.5 -150.5t-149.5 -91t-186 -30.5t-186.5 30.5t-149 91t-98 150.5t-35.5 207zM627 1546l153 400h94l-180 -400h-67z" />
<glyph unicode="&#xdb;" horiz-adv-x="1333" d="M197 463v930h84v-924q0 -201 106.5 -306.5t278.5 -105.5q86 0 156.5 27t121.5 79t80 129t29 177v924h84v-930q0 -117 -36 -207t-99.5 -150.5t-149.5 -91t-186 -30.5t-186.5 30.5t-149 91t-98 150.5t-35.5 207zM424 1540l231 373h19l231 -373h-71l-168 244l-170 -244h-72z " />
<glyph unicode="&#xdc;" horiz-adv-x="1333" d="M197 463v930h84v-924q0 -201 106.5 -306.5t278.5 -105.5q86 0 156.5 27t121.5 79t80 129t29 177v924h84v-930q0 -117 -36 -207t-99.5 -150.5t-149.5 -91t-186 -30.5t-186.5 30.5t-149 91t-98 150.5t-35.5 207zM444 1661q0 29 19.5 47t46.5 18t46 -18t19 -47t-19 -47.5 t-46 -18.5t-46.5 18.5t-19.5 47.5zM756 1661q0 29 19.5 47t45.5 18q27 0 46.5 -18t19.5 -47t-19.5 -47.5t-46.5 -18.5t-46 18.5t-19 47.5z" />
<glyph unicode="&#xdd;" horiz-adv-x="1316" d="M90 1393h94l445 -807q6 -12 12 -27.5t10 -28.5q6 -14 11 -28l12 28q4 12 10 27.5t14 28.5l443 807h88l-527 -961v-432h-86v434zM618 1546l154 400h94l-180 -400h-68z" />
<glyph unicode="&#xde;" horiz-adv-x="1179" d="M211 0v1393h84v-168h217q137 0 237.5 -40t167 -110.5t98.5 -165t32 -202.5q0 -109 -32 -203t-98.5 -164t-167 -110t-237.5 -40h-217v-190h-84zM295 264h209q127 0 214 35t141 94.5t78 140t24 173.5q0 92 -24 174t-78 141t-141 94t-214 35h-209v-887z" />
<glyph unicode="&#xdf;" horiz-adv-x="1034" d="M172 0v1147q0 96 24.5 164.5t64.5 111.5t93.5 62.5t112.5 19.5q111 0 188.5 -64.5t77.5 -189.5q0 -59 -14 -104t-41 -105l-107 -239q-23 -53 -37 -91t-14 -73q0 -33 9.5 -56.5t31 -42t58 -33.5t90.5 -32q45 -12 90 -32.5t80.5 -51.5t58.5 -75t23 -103q0 -96 -66 -162.5 t-199 -66.5q-117 0 -199.5 58t-115.5 151l70 24q31 -84 97 -123t146 -39q86 0 136.5 43t50.5 113q0 88 -55.5 129t-149.5 70q-47 14 -88 31.5t-73 43t-50.5 61.5t-18.5 87q0 41 11.5 80t44.5 110l110 248q25 55 35 93t10 85q0 94 -51 139.5t-139 45.5q-45 0 -84 -14.5 t-68.5 -49.5t-46 -91t-16.5 -138v-1141h-80z" />
<glyph unicode="&#xe0;" horiz-adv-x="1124" d="M106 420q0 92 31 171t86.5 137t130 92t162.5 34q129 0 219 -63.5t137 -161.5l-2 207h80v-836h-80l2 207q-47 -96 -140 -159.5t-216 -63.5q-88 0 -162.5 33.5t-130 92t-86.5 138.5t-31 172zM190 420q0 -78 24 -144.5t68 -115.5t106 -77t140 -28t141.5 28t109.5 76 t70.5 113.5t24.5 143.5t-24.5 144.5t-70.5 115.5t-109.5 77.5t-141.5 28.5t-140 -27.5t-106 -75.5t-68 -114.5t-24 -144.5zM291 1417h94l154 -399h-68z" />
<glyph unicode="&#xe1;" horiz-adv-x="1124" d="M106 420q0 92 31 171t86.5 137t130 92t162.5 34q129 0 219 -63.5t137 -161.5l-2 207h80v-836h-80l2 207q-47 -96 -140 -159.5t-216 -63.5q-88 0 -162.5 33.5t-130 92t-86.5 138.5t-31 172zM190 420q0 -78 24 -144.5t68 -115.5t106 -77t140 -28t141.5 28t109.5 76 t70.5 113.5t24.5 143.5t-24.5 144.5t-70.5 115.5t-109.5 77.5t-141.5 28.5t-140 -27.5t-106 -75.5t-68 -114.5t-24 -144.5zM475 1018l154 399h94l-180 -399h-68z" />
<glyph unicode="&#xe2;" horiz-adv-x="1124" d="M106 420q0 92 31 171t86.5 137t130 92t162.5 34q129 0 219 -63.5t137 -161.5l-2 207h80v-836h-80l2 207q-47 -96 -140 -159.5t-216 -63.5q-88 0 -162.5 33.5t-130 92t-86.5 138.5t-31 172zM190 420q0 -78 24 -144.5t68 -115.5t106 -77t140 -28t141.5 28t109.5 76 t70.5 113.5t24.5 143.5t-24.5 144.5t-70.5 115.5t-109.5 77.5t-141.5 28.5t-140 -27.5t-106 -75.5t-68 -114.5t-24 -144.5zM293 1012l231 372h19l231 -372h-72l-167 243l-170 -243h-72z" />
<glyph unicode="&#xe3;" horiz-adv-x="1124" d="M106 420q0 92 31 171t86.5 137t130 92t162.5 34q129 0 219 -63.5t137 -161.5l-2 207h80v-836h-80l2 207q-47 -96 -140 -159.5t-216 -63.5q-88 0 -162.5 33.5t-130 92t-86.5 138.5t-31 172zM190 420q0 -78 24 -144.5t68 -115.5t106 -77t140 -28t141.5 28t109.5 76 t70.5 113.5t24.5 143.5t-24.5 144.5t-70.5 115.5t-109.5 77.5t-141.5 28.5t-140 -27.5t-106 -75.5t-68 -114.5t-24 -144.5zM252 1008q4 94 45 146t109 52q45 0 75.5 -20.5t69.5 -57.5q39 -39 56.5 -50t43.5 -11q68 0 80 133l70 -6q-4 -94 -42 -145.5t-110 -51.5 q-45 0 -75.5 21.5t-69.5 58.5q-20 18 -33.5 30.5t-24 19t-20.5 8.5t-23 2q-70 0 -81 -136z" />
<glyph unicode="&#xe4;" horiz-adv-x="1124" d="M106 420q0 92 31 171t86.5 137t130 92t162.5 34q129 0 219 -63.5t137 -161.5l-2 207h80v-836h-80l2 207q-47 -96 -140 -159.5t-216 -63.5q-88 0 -162.5 33.5t-130 92t-86.5 138.5t-31 172zM190 420q0 -78 24 -144.5t68 -115.5t106 -77t140 -28t141.5 28t109.5 76 t70.5 113.5t24.5 143.5t-24.5 144.5t-70.5 115.5t-109.5 77.5t-141.5 28.5t-140 -27.5t-106 -75.5t-68 -114.5t-24 -144.5zM299 1133q0 29 19.5 47t46.5 18t46 -18.5t19 -46.5q0 -29 -19 -47.5t-46 -18.5t-46.5 18.5t-19.5 47.5zM610 1133q0 29 19.5 47t46.5 18t46 -18.5 t19 -46.5q0 -29 -19 -47.5t-46 -18.5t-46.5 18.5t-19.5 47.5z" />
<glyph unicode="&#xe5;" horiz-adv-x="1124" d="M106 420q0 92 31 171t86.5 137t130 92t162.5 34q129 0 219 -63.5t137 -161.5l-2 207h80v-836h-80l2 207q-47 -96 -140 -159.5t-216 -63.5q-88 0 -162.5 33.5t-130 92t-86.5 138.5t-31 172zM190 420q0 -78 24 -144.5t68 -115.5t106 -77t140 -28t141.5 28t109.5 76 t70.5 113.5t24.5 143.5t-24.5 144.5t-70.5 115.5t-109.5 77.5t-141.5 28.5t-140 -27.5t-106 -75.5t-68 -114.5t-24 -144.5zM330 1188q0 39 15 73.5t41 60.5t60.5 40t75.5 14q39 0 75 -14t61.5 -40t41 -60.5t15.5 -73.5t-15.5 -74t-41 -60.5t-61.5 -40t-75 -14.5 q-41 0 -75.5 14.5t-60.5 40t-41 60.5t-15 74zM403 1188q0 -57 33 -91t86 -34t86 33.5t33 91.5q0 57 -33 91t-86 34t-86 -34t-33 -91z" />
<glyph unicode="&#xe6;" horiz-adv-x="1630" d="M104 236q0 61 26 106t69 74.5t98 44t113 14.5h295v49q0 141 -59.5 200.5t-164.5 59.5q-96 0 -161.5 -37.5t-110.5 -105.5l-57 41q53 82 138 127t193 45q111 0 185.5 -57.5t93.5 -175.5q49 104 142 168.5t216 64.5q94 0 171 -35t130.5 -95t82 -141t26.5 -173h-748 q2 -74 27 -138.5t71 -112.5t110.5 -76t146.5 -28q104 0 174.5 37t118.5 94l53 -47q-55 -70 -142.5 -112.5t-203.5 -42.5q-135 0 -230.5 63.5t-144.5 167.5q-12 -59 -47 -102t-83 -72t-103.5 -43t-108.5 -14q-137 0 -226.5 63.5t-89.5 188.5zM184 238q0 -96 60.5 -139.5 t183.5 -43.5q51 0 101.5 14.5t89 42t62.5 66.5t24 88v144h-285q-47 0 -90 -9.5t-76 -30t-51.5 -53t-18.5 -79.5zM786 475h662q-4 61 -26.5 117.5t-63.5 98.5t-100.5 67.5t-137.5 25.5q-70 0 -128 -24.5t-101 -66.5t-69.5 -98t-35.5 -120z" />
<glyph unicode="&#xe7;" horiz-adv-x="950" d="M106 418q0 90 33 169t89.5 138t134 94t167.5 35q106 0 185.5 -38t132.5 -103l-57 -47q-45 55 -106.5 85.5t-154.5 30.5q-78 0 -140 -27.5t-106 -76.5t-69 -115.5t-25 -144.5t25 -143.5t69 -114.5t106.5 -77t139.5 -28q98 0 165 34t112 91l57 -47q-59 -72 -139 -110.5 t-195 -38.5h-4v-105q63 -8 113.5 -53t50.5 -121q0 -43 -15.5 -74.5t-41 -53t-59 -33t-68.5 -11.5q-74 0 -122 36t-71 83l62 37q16 -35 45 -61.5t84 -26.5q43 0 74.5 26.5t31.5 79.5q0 45 -29.5 79t-97.5 34h-30v170q-76 14 -139.5 53t-109.5 95.5t-72 128t-26 151.5z" />
<glyph unicode="&#xe8;" horiz-adv-x="1036" d="M106 418q0 90 32 169t89.5 138t133 94t165.5 35q94 0 171 -35t130.5 -96t82 -144t26.5 -178h-748q2 -76 28 -139t72 -109.5t110.5 -72t144.5 -25.5q104 0 174.5 37t118.5 94l53 -47q-55 -70 -142.5 -112.5t-203.5 -42.5q-98 0 -179 33.5t-138.5 93t-88.5 138.5t-31 169z M190 467h664q-4 63 -26.5 121.5t-63.5 101.5t-100.5 68.5t-137.5 25.5q-72 0 -130 -23.5t-101 -66.5t-69.5 -101t-35.5 -126zM309 1417h94l154 -399h-68z" />
<glyph unicode="&#xe9;" horiz-adv-x="1036" d="M106 418q0 90 32 169t89.5 138t133 94t165.5 35q94 0 171 -35t130.5 -96t82 -144t26.5 -178h-748q2 -76 28 -139t72 -109.5t110.5 -72t144.5 -25.5q104 0 174.5 37t118.5 94l53 -47q-55 -70 -142.5 -112.5t-203.5 -42.5q-98 0 -179 33.5t-138.5 93t-88.5 138.5t-31 169z M190 467h664q-4 63 -26.5 121.5t-63.5 101.5t-100.5 68.5t-137.5 25.5q-72 0 -130 -23.5t-101 -66.5t-69.5 -101t-35.5 -126zM479 1018l154 399h94l-180 -399h-68z" />
<glyph unicode="&#xea;" horiz-adv-x="1036" d="M106 418q0 90 32 169t89.5 138t133 94t165.5 35q94 0 171 -35t130.5 -96t82 -144t26.5 -178h-748q2 -76 28 -139t72 -109.5t110.5 -72t144.5 -25.5q104 0 174.5 37t118.5 94l53 -47q-55 -70 -142.5 -112.5t-203.5 -42.5q-98 0 -179 33.5t-138.5 93t-88.5 138.5t-31 169z M190 467h664q-4 63 -26.5 121.5t-63.5 101.5t-100.5 68.5t-137.5 25.5q-72 0 -130 -23.5t-101 -66.5t-69.5 -101t-35.5 -126zM276 1012l232 372h18l232 -372h-72l-168 243l-170 -243h-72z" />
<glyph unicode="&#xeb;" horiz-adv-x="1036" d="M106 418q0 90 32 169t89.5 138t133 94t165.5 35q94 0 171 -35t130.5 -96t82 -144t26.5 -178h-748q2 -76 28 -139t72 -109.5t110.5 -72t144.5 -25.5q104 0 174.5 37t118.5 94l53 -47q-55 -70 -142.5 -112.5t-203.5 -42.5q-98 0 -179 33.5t-138.5 93t-88.5 138.5t-31 169z M190 467h664q-4 63 -26.5 121.5t-63.5 101.5t-100.5 68.5t-137.5 25.5q-72 0 -130 -23.5t-101 -66.5t-69.5 -101t-35.5 -126zM297 1133q0 29 19.5 47t45.5 18q27 0 46.5 -18.5t19.5 -46.5q0 -29 -19.5 -47.5t-46.5 -18.5t-46 18.5t-19 47.5zM608 1133q0 29 19.5 47t46.5 18 t46 -18.5t19 -46.5q0 -29 -19 -47.5t-46 -18.5t-46.5 18.5t-19.5 47.5z" />
<glyph unicode="&#xec;" horiz-adv-x="425" d="M0 1417h94l154 -399h-68zM174 0v836h80v-836h-80z" />
<glyph unicode="&#xed;" horiz-adv-x="425" d="M174 0v836h80v-836h-80zM178 1018l154 399h94l-180 -399h-68z" />
<glyph unicode="&#xee;" horiz-adv-x="425" d="M-29 1012l232 372h18l232 -372h-72l-168 243l-170 -243h-72zM174 0v836h80v-836h-80z" />
<glyph unicode="&#xef;" horiz-adv-x="425" d="M-8 1133q0 29 19.5 47t45.5 18q27 0 46.5 -18.5t19.5 -46.5q0 -29 -19.5 -47.5t-46.5 -18.5t-46 18.5t-19 47.5zM174 0v836h80v-836h-80zM303 1133q0 29 19.5 47t46.5 18t46 -18.5t19 -46.5q0 -29 -19 -47.5t-46 -18.5t-46.5 18.5t-19.5 47.5z" />
<glyph unicode="&#xf0;" horiz-adv-x="1081" d="M106 420q0 90 34 169t93.5 138t138.5 93t171 34q106 0 187 -46t134 -126q-37 154 -114.5 290t-171.5 253l-150 -146l-47 47l151 150q-96 109 -186 186l49 49q45 -35 93.5 -81t97.5 -101l149 148l49 -50l-153 -151q68 -80 129 -176t109.5 -202.5t77 -224.5t28.5 -241 q0 -90 -33 -171t-91 -142.5t-137 -98t-171 -36.5t-171 34.5t-138.5 94t-93.5 138.5t-34 169zM188 420q0 -78 26 -144.5t73 -115.5t112.5 -77t143.5 -28t142.5 29t110.5 79t71.5 119.5t25.5 149.5q0 74 -25.5 138.5t-71.5 111.5t-110.5 73.5t-142.5 26.5t-143.5 -27.5 t-112.5 -75.5t-73 -114.5t-26 -144.5z" />
<glyph unicode="&#xf1;" horiz-adv-x="1042" d="M172 0v836h80l-2 -187q41 96 125 150.5t194 54.5q141 0 226.5 -88t85.5 -244v-522h-80v508q0 129 -59.5 200.5t-182.5 71.5q-135 0 -221 -83t-86 -230v-467h-80zM238 1008q4 94 45 146t108 52q45 0 76 -20.5t70 -57.5q39 -39 56 -50t44 -11q68 0 80 133l69 -6 q-4 -94 -41.5 -145.5t-109.5 -51.5q-45 0 -76 21.5t-70 58.5q-20 18 -33.5 30.5t-23.5 19t-20.5 8.5t-22.5 2q-70 0 -82 -136z" />
<glyph unicode="&#xf2;" horiz-adv-x="1081" d="M106 420q0 90 34 169t93.5 138t138.5 93t171 34t171 -34t137 -93t91 -138t33 -169t-33 -169t-91 -138.5t-137 -94t-171 -34.5t-171 34.5t-138.5 94t-93.5 138.5t-34 169zM188 420q0 -78 26 -144.5t73 -115.5t112.5 -77t143.5 -28t142.5 28t110.5 77t71.5 115.5 t25.5 144.5t-25.5 144.5t-71.5 114.5t-110.5 75.5t-142.5 27.5t-143.5 -27.5t-112.5 -75.5t-73 -114.5t-26 -144.5zM332 1417h94l154 -399h-68z" />
<glyph unicode="&#xf3;" horiz-adv-x="1081" d="M106 420q0 90 34 169t93.5 138t138.5 93t171 34t171 -34t137 -93t91 -138t33 -169t-33 -169t-91 -138.5t-137 -94t-171 -34.5t-171 34.5t-138.5 94t-93.5 138.5t-34 169zM188 420q0 -78 26 -144.5t73 -115.5t112.5 -77t143.5 -28t142.5 28t110.5 77t71.5 115.5 t25.5 144.5t-25.5 144.5t-71.5 114.5t-110.5 75.5t-142.5 27.5t-143.5 -27.5t-112.5 -75.5t-73 -114.5t-26 -144.5zM502 1018l153 399h95l-181 -399h-67z" />
<glyph unicode="&#xf4;" horiz-adv-x="1081" d="M106 420q0 90 34 169t93.5 138t138.5 93t171 34t171 -34t137 -93t91 -138t33 -169t-33 -169t-91 -138.5t-137 -94t-171 -34.5t-171 34.5t-138.5 94t-93.5 138.5t-34 169zM188 420q0 -78 26 -144.5t73 -115.5t112.5 -77t143.5 -28t142.5 28t110.5 77t71.5 115.5 t25.5 144.5t-25.5 144.5t-71.5 114.5t-110.5 75.5t-142.5 27.5t-143.5 -27.5t-112.5 -75.5t-73 -114.5t-26 -144.5zM299 1012l231 372h19l231 -372h-71l-168 243l-170 -243h-72z" />
<glyph unicode="&#xf5;" horiz-adv-x="1081" d="M106 420q0 90 34 169t93.5 138t138.5 93t171 34t171 -34t137 -93t91 -138t33 -169t-33 -169t-91 -138.5t-137 -94t-171 -34.5t-171 34.5t-138.5 94t-93.5 138.5t-34 169zM188 420q0 -78 26 -144.5t73 -115.5t112.5 -77t143.5 -28t142.5 28t110.5 77t71.5 115.5 t25.5 144.5t-25.5 144.5t-71.5 114.5t-110.5 75.5t-142.5 27.5t-143.5 -27.5t-112.5 -75.5t-73 -114.5t-26 -144.5zM266 1008q4 94 45 146t109 52q45 0 75.5 -20.5t69.5 -57.5q39 -39 56.5 -50t44.5 -11q68 0 79 133l70 -6q-4 -94 -42 -145.5t-109 -51.5q-45 0 -76 21.5 t-70 58.5q-20 18 -33.5 30.5t-23.5 19t-20.5 8.5t-22.5 2q-70 0 -82 -136z" />
<glyph unicode="&#xf6;" horiz-adv-x="1081" d="M106 420q0 90 34 169t93.5 138t138.5 93t171 34t171 -34t137 -93t91 -138t33 -169t-33 -169t-91 -138.5t-137 -94t-171 -34.5t-171 34.5t-138.5 94t-93.5 138.5t-34 169zM188 420q0 -78 26 -144.5t73 -115.5t112.5 -77t143.5 -28t142.5 28t110.5 77t71.5 115.5 t25.5 144.5t-25.5 144.5t-71.5 114.5t-110.5 75.5t-142.5 27.5t-143.5 -27.5t-112.5 -75.5t-73 -114.5t-26 -144.5zM319 1133q0 29 19.5 47t46.5 18t46.5 -18.5t19.5 -46.5q0 -29 -19.5 -47.5t-46.5 -18.5t-46.5 18.5t-19.5 47.5zM631 1133q0 29 19.5 47t45.5 18 q27 0 46.5 -18.5t19.5 -46.5q0 -29 -19.5 -47.5t-46.5 -18.5t-46 18.5t-19 47.5z" />
<glyph unicode="&#xf7;" d="M102 485q0 35 26 58.5t56 23.5q33 0 57.5 -23.5t24.5 -58.5t-24.5 -58.5t-57.5 -23.5q-31 0 -56.5 24t-25.5 58z" />
<glyph unicode="&#xf8;" horiz-adv-x="1081" d="M86 23l121 116q-47 57 -74 129t-27 152q0 90 34 169t93.5 138t138.5 93t171 34q86 0 158.5 -28.5t129.5 -80.5l117 115l45 -49l-116 -113q47 -57 72.5 -128.5t25.5 -149.5q0 -90 -33 -169t-91 -138.5t-137 -94t-171 -34.5q-84 0 -157 28.5t-132 79.5l-121 -117zM188 420 q0 -66 18.5 -124t53.5 -106l518 504q-45 41 -104.5 64.5t-130.5 23.5q-78 0 -143.5 -27.5t-112.5 -75.5t-73 -114.5t-26 -144.5zM305 141q47 -41 106.5 -63.5t131.5 -22.5q78 0 142.5 28t110.5 77t71.5 115.5t25.5 144.5q0 133 -70 225z" />
<glyph unicode="&#xf9;" horiz-adv-x="1028" d="M164 367v469h80v-463q0 -154 64.5 -235t205.5 -81t205.5 81t64.5 235v463h80v-469q0 -186 -95 -284.5t-255 -98.5t-255 98t-95 285zM307 1417h94l154 -399h-68z" />
<glyph unicode="&#xfa;" horiz-adv-x="1028" d="M164 367v469h80v-463q0 -154 64.5 -235t205.5 -81t205.5 81t64.5 235v463h80v-469q0 -186 -95 -284.5t-255 -98.5t-255 98t-95 285zM477 1018l154 399h94l-180 -399h-68z" />
<glyph unicode="&#xfb;" horiz-adv-x="1028" d="M164 367v469h80v-463q0 -154 64.5 -235t205.5 -81t205.5 81t64.5 235v463h80v-469q0 -186 -95 -284.5t-255 -98.5t-255 98t-95 285zM274 1012l232 372h18l232 -372h-72l-168 243l-170 -243h-72z" />
<glyph unicode="&#xfc;" horiz-adv-x="1028" d="M164 367v469h80v-463q0 -154 64.5 -235t205.5 -81t205.5 81t64.5 235v463h80v-469q0 -186 -95 -284.5t-255 -98.5t-255 98t-95 285zM295 1133q0 29 19.5 47t45.5 18q27 0 46.5 -18.5t19.5 -46.5q0 -29 -19.5 -47.5t-46.5 -18.5t-46 18.5t-19 47.5zM606 1133q0 29 19.5 47 t46.5 18t46 -18.5t19 -46.5q0 -29 -19 -47.5t-46 -18.5t-46.5 18.5t-19.5 47.5z" />
<glyph unicode="&#xfd;" horiz-adv-x="919" d="M66 836h86l292 -619q6 -16 12.5 -33.5t10.5 -31.5q6 -18 10 -33q2 14 8 33q4 14 9.5 31.5t13.5 33.5l264 619h82l-547 -1270h-82l211 495zM420 1018l153 399h95l-181 -399h-67z" />
<glyph unicode="&#xfe;" horiz-adv-x="1128" d="M174 -434v1913h80v-842q47 94 136 155.5t218 61.5q90 0 166 -34t131.5 -92t86 -137t30.5 -171t-30.5 -172t-86 -138.5t-131.5 -92t-166 -33.5q-123 0 -216 63.5t-138 155.5v-637h-80zM248 420q0 -78 24.5 -144.5t70.5 -115.5t110.5 -77t144.5 -28q78 0 140.5 28t107.5 77 t68.5 115.5t23.5 144.5t-23.5 144.5t-68.5 114.5t-107.5 75.5t-140.5 27.5q-80 0 -144.5 -27.5t-110.5 -75.5t-70.5 -114.5t-24.5 -144.5z" />
<glyph unicode="&#xff;" horiz-adv-x="919" d="M66 836h86l292 -619q6 -16 12.5 -33.5t10.5 -31.5q6 -18 10 -33q2 14 8 33q4 14 9.5 31.5t13.5 33.5l264 619h82l-547 -1270h-82l211 495zM238 1133q0 29 19 47t46 18t46.5 -18.5t19.5 -46.5q0 -29 -19.5 -47.5t-46.5 -18.5t-46 18.5t-19 47.5zM549 1133q0 29 19.5 47 t45.5 18q27 0 46.5 -18.5t19.5 -46.5q0 -29 -19.5 -47.5t-46.5 -18.5t-46 18.5t-19 47.5z" />
<glyph unicode="&#x152;" horiz-adv-x="2013" d="M117 696q0 154 49 282t143 220t230.5 143.5t312.5 51.5h1012v-74h-729v-746h653v-73h-653v-426h757v-74h-1040q-174 0 -311.5 51t-231.5 143.5t-143 220.5t-49 281zM203 696q0 -137 41 -250.5t124 -195.5t205.5 -128t288.5 -46h189v1241h-189q-166 0 -288.5 -46 t-205.5 -128t-124 -195.5t-41 -251.5z" />
<glyph unicode="&#x153;" horiz-adv-x="1816" d="M106 420q0 90 34 169t93.5 138t138.5 93t171 34q141 0 243.5 -78t143.5 -201q41 123 140 201t237 78q94 0 170.5 -35t130 -96t82 -144t26.5 -178h-747q2 -76 27.5 -139t71.5 -109.5t110.5 -72t144.5 -25.5q104 0 175 37t118 94l53 -47q-55 -70 -142 -112.5t-204 -42.5 q-154 0 -253 76.5t-140 199.5q-43 -123 -144.5 -199.5t-242.5 -76.5q-92 0 -171 34.5t-138.5 94t-93.5 138.5t-34 169zM188 420q0 -78 26 -144.5t73 -115.5t112.5 -77t143.5 -28t142.5 28t110.5 77t71.5 115.5t25.5 144.5t-25.5 144.5t-71.5 114.5t-110.5 75.5t-142.5 27.5 t-143.5 -27.5t-112.5 -75.5t-73 -114.5t-26 -144.5zM971 467h663q-4 63 -26.5 121.5t-63.5 101.5t-100.5 68.5t-136.5 25.5q-72 0 -130.5 -23.5t-101.5 -66.5t-69.5 -101t-34.5 -126z" />
<glyph unicode="&#x178;" horiz-adv-x="1316" d="M90 1393h94l445 -807q6 -12 12 -27.5t10 -28.5q6 -14 11 -28l12 28q4 12 10 27.5t14 28.5l443 807h88l-527 -961v-432h-86v434zM436 1661q0 29 19.5 47t46.5 18t46 -18t19 -47t-19 -47.5t-46 -18.5t-46.5 18.5t-19.5 47.5zM748 1661q0 29 19 47t46 18t46.5 -18t19.5 -47 t-19.5 -47.5t-46.5 -18.5t-46 18.5t-19 47.5z" />
<glyph unicode="&#x2c6;" horiz-adv-x="1024" d="M270 1012l232 372h18l232 -372h-72l-168 243l-170 -243h-72z" />
<glyph unicode="&#x2dc;" horiz-adv-x="1024" d="M238 1008q4 94 45 146t108 52q45 0 76 -20.5t70 -57.5q39 -39 56 -50t44 -11q68 0 80 133l69 -6q-4 -94 -41.5 -145.5t-109.5 -51.5q-45 0 -76 21.5t-70 58.5q-20 18 -33.5 30.5t-23.5 19t-20.5 8.5t-22.5 2q-70 0 -82 -136z" />
<glyph unicode="&#x2000;" horiz-adv-x="973" />
<glyph unicode="&#x2001;" horiz-adv-x="1946" />
<glyph unicode="&#x2002;" horiz-adv-x="973" />
<glyph unicode="&#x2003;" horiz-adv-x="1946" />
<glyph unicode="&#x2004;" horiz-adv-x="648" />
<glyph unicode="&#x2005;" horiz-adv-x="486" />
<glyph unicode="&#x2006;" horiz-adv-x="324" />
<glyph unicode="&#x2007;" horiz-adv-x="324" />
<glyph unicode="&#x2008;" horiz-adv-x="243" />
<glyph unicode="&#x2009;" horiz-adv-x="389" />
<glyph unicode="&#x200a;" horiz-adv-x="108" />
<glyph unicode="&#x2010;" horiz-adv-x="569" d="M104 426v74h359v-74h-359z" />
<glyph unicode="&#x2011;" horiz-adv-x="569" d="M104 426v74h359v-74h-359z" />
<glyph unicode="&#x2012;" horiz-adv-x="569" d="M104 426v74h359v-74h-359z" />
<glyph unicode="&#x2013;" horiz-adv-x="796" d="M78 330v69h639v-69h-639z" />
<glyph unicode="&#x2014;" horiz-adv-x="1243" d="M78 330v69h1087v-69h-1087z" />
<glyph unicode="&#x2018;" horiz-adv-x="364" d="M102 1114q0 14 11 39l108 240h51l-65 -205q23 -4 39 -24.5t16 -49.5q0 -35 -24.5 -58.5t-55.5 -23.5t-55.5 23.5t-24.5 58.5z" />
<glyph unicode="&#x2019;" horiz-adv-x="364" d="M92 1047l66 204q-23 4 -39.5 24.5t-16.5 49.5q0 35 25 58.5t55 23.5q31 0 55.5 -23.5t24.5 -58.5q0 -14 -10 -39l-109 -239h-51z" />
<glyph unicode="&#x201a;" horiz-adv-x="364" d="M92 -211l66 205q-23 4 -39.5 24.5t-16.5 49.5q0 35 25 58.5t55 23.5q31 0 55.5 -24t24.5 -58q0 -14 -10 -39l-109 -240h-51z" />
<glyph unicode="&#x201c;" horiz-adv-x="632" d="M102 1114q0 14 11 39l108 240h51l-65 -205q23 -4 39 -24.5t16 -49.5q0 -35 -24.5 -58.5t-55.5 -23.5t-55.5 23.5t-24.5 58.5zM371 1114q0 14 10 39l108 240h52l-66 -205q23 -4 39 -24.5t16 -49.5q0 -35 -24 -58.5t-55 -23.5t-55.5 23.5t-24.5 58.5z" />
<glyph unicode="&#x201d;" horiz-adv-x="632" d="M92 1047l66 204q-23 4 -39.5 24.5t-16.5 49.5q0 35 25 58.5t55 23.5q31 0 55.5 -23.5t24.5 -58.5q0 -14 -10 -39l-109 -239h-51zM360 1047l66 204q-23 4 -39 24.5t-16 49.5q0 35 24.5 58.5t55.5 23.5t55 -23.5t24 -58.5q0 -14 -10 -39l-108 -239h-52z" />
<glyph unicode="&#x201e;" horiz-adv-x="632" d="M92 -211l66 205q-23 4 -39.5 24.5t-16.5 49.5q0 35 25 58.5t55 23.5q31 0 55.5 -24t24.5 -58q0 -14 -10 -39l-109 -240h-51zM360 -211l66 205q-23 4 -39 24.5t-16 49.5q0 35 24.5 58.5t55.5 23.5t55 -24t24 -58q0 -14 -10 -39l-108 -240h-52z" />
<glyph unicode="&#x2022;" horiz-adv-x="571" d="M104 522q0 39 14.5 72t40 57.5t58.5 37.5t70 13t69.5 -13t57 -37.5t39 -57.5t14.5 -72q0 -37 -14.5 -69.5t-39 -57t-57 -39t-69.5 -14.5t-70 14.5t-58.5 39t-40 57t-14.5 69.5z" />
<glyph unicode="&#x2026;" horiz-adv-x="1142" d="M102 68q0 35 26 58.5t56 23.5q33 0 57.5 -24t24.5 -58q0 -35 -24.5 -58.5t-57.5 -23.5q-31 0 -56.5 23.5t-25.5 58.5zM489 68q0 35 26 58.5t56 23.5q33 0 57.5 -24t24.5 -58q0 -35 -24.5 -58.5t-57.5 -23.5q-31 0 -56.5 23.5t-25.5 58.5zM877 68q0 35 25.5 58.5 t55.5 23.5q33 0 57.5 -24t24.5 -58q0 -35 -24.5 -58.5t-57.5 -23.5q-31 0 -56 23.5t-25 58.5z" />
<glyph unicode="&#x202f;" horiz-adv-x="389" />
<glyph unicode="&#x2039;" horiz-adv-x="450" d="M84 397v17l190 315h93l-195 -323l195 -324h-93z" />
<glyph unicode="&#x203a;" horiz-adv-x="450" d="M84 82l195 324l-195 323h92l191 -315v-17l-191 -315h-92z" />
<glyph unicode="&#x205f;" horiz-adv-x="486" />
<glyph unicode="&#x20ac;" horiz-adv-x="1511" d="M78 473v70h203q-12 74 -13 153v32.5t2 33.5h-192v69h201q18 127 72.5 233.5t134 183.5t183 119t222.5 42q88 0 160.5 -17.5t131 -50t104.5 -78.5t81 -104l-61 -41q-35 51 -74 92t-88 68t-111.5 41t-142.5 14q-104 0 -193.5 -36.5t-157 -103.5t-112.5 -159t-63 -203h700 v-69h-709q-2 -16 -2 -32.5v-33.5q0 -80 13 -153h698v-70h-682q27 -92 75 -169t113.5 -131t148.5 -84t179 -30q94 0 167 23.5t127 60.5t93 84t68 95l65 -39q-31 -55 -75 -109.5t-106 -96.5t-145 -67.5t-194 -25.5t-207 34.5t-175 99t-135 154.5t-85 201h-219z" />
<glyph unicode="&#x2122;" horiz-adv-x="1499" d="M111 1325v68h458v-68h-190v-534h-76v534h-192zM715 791v612h16l291 -342l291 342h16v-612h-76v444l-221 -266h-20l-221 266v-444h-76z" />
<glyph unicode="&#x25fc;" horiz-adv-x="839" d="M0 0v840h840v-840h-840z" />
<glyph unicode="&#xfb03;" horiz-adv-x="1445" d="M74 768v68h133v389q0 129 58.5 184t137.5 55q76 0 117 -27.5t70 -70.5l-60 -45q-23 33 -47 52.5t-77 19.5t-86 -35t-33 -135v-387h413v430q0 129 58.5 184t138.5 55q76 0 117 -27.5t69 -70.5l-59 -45q-23 33 -47.5 52.5t-77.5 19.5t-86 -35t-33 -135v-428h494v-836h-80 v768h-414v-768h-80v768h-413v-768h-80v768h-133zM1165 1196q0 29 20.5 48.5t47.5 19.5t47 -19.5t20 -48.5q0 -31 -20 -49.5t-47 -18.5t-47.5 18.5t-20.5 49.5z" />
<glyph unicode="&#xfb04;" horiz-adv-x="1458" d="M74 766v70h133v389q0 129 58.5 184t137.5 55q76 0 117 -27.5t70 -70.5l-60 -45q-23 33 -47 52.5t-77 19.5t-86 -35t-33 -135v-387h413v430q0 129 58.5 184t138.5 55q76 0 117 -27.5t69 -70.5l-59 -45q-23 33 -47.5 52.5t-77.5 19.5t-86 -35t-33 -135v-428h224v-70h-224 v-766h-80v766h-413v-766h-80v766h-133zM1194 0v1479h80v-1479h-80z" />
</font>
</defs>
</svg>
