<svg version="1.1" id="Layer_1" xmlns="http://www.w3.org/2000/svg" xmlns:xlink="http://www.w3.org/1999/xlink" x="0px" y="0px"
	 width="273.5px" height="270px" viewBox="43.5 -32 273.5 270" style="enable-background:new 43.5 -32 273.5 270;"
	 xml:space="preserve">
<style type="text/css">
<![CDATA[
	.st0{fill:#FFFFFF;}
	.st1{fill:none;}
]]>
</style>
<g>
	<path class="st0" d="M180-27.422c-72.074,0-130.5,58.427-130.5,130.5c0,72.072,58.426,130.5,130.5,130.5s130.5-58.428,130.5-130.5
		C310.5,31.005,252.074-27.422,180-27.422z M182.463,174.482h-31.189h-11.695H88.896l31.188-62.375l25.341,50.681h31.188
		l-40.935-81.87l46.783-93.566l46.782,93.566l-15.595,31.188l-38.983-77.971L159.07,65.323l38.987,77.972L182.463,174.482z
		 M213.65,174.482l31.188-62.377l31.188,62.377H213.65z"/>
	<path class="st1" d="M180-27.422c-72.074,0-130.5,58.427-130.5,130.5c0,72.072,58.426,130.5,130.5,130.5s130.5-58.428,130.5-130.5
		C310.5,31.005,252.074-27.422,180-27.422z M182.463,174.482h-31.189h-11.695H88.896l31.188-62.375l25.341,50.681h31.188
		l-40.935-81.87l46.783-93.566l46.782,93.566l-15.595,31.188l-38.983-77.971L159.07,65.323l38.987,77.972L182.463,174.482z
		 M213.65,174.482l31.188-62.377l31.188,62.377H213.65z"/>
</g>
</svg>
