<?xml version="1.0" encoding="utf-8"?>
<!-- Generator: Adobe Illustrator 16.0.0, SVG Export Plug-In . SVG Version: 6.00 Build 0)  -->
<!DOCTYPE svg PUBLIC "-//W3C//DTD SVG 1.1//EN" "http://www.w3.org/Graphics/SVG/1.1/DTD/svg11.dtd">
<svg version="1.1" id="Layer_1" xmlns="http://www.w3.org/2000/svg" xmlns:xlink="http://www.w3.org/1999/xlink" x="0px" y="0px"
	 width="216px" height="216px" viewBox="0 0 216 216" enable-background="new 0 0 216 216" xml:space="preserve">
<g>
	<path fill="#FFFFFF" d="M108,0C48.352,0,0,48.353,0,108c0,59.646,48.352,108,108,108c59.648,0,108-48.354,108-108
		C216,48.353,167.648,0,108,0z M110.039,167.094H84.227h-9.679H32.604l25.812-51.619l20.971,41.941h25.812L71.321,89.66
		l38.717-77.434l38.716,77.434l-12.906,25.813l-32.264-64.529L90.679,76.755l32.264,64.528L110.039,167.094z M135.85,167.094
		l25.813-51.621l25.813,51.621H135.85z"/>
</g>
</svg>
