<?xml version="1.0" encoding="utf-8"?>
<!-- Generator: Adobe Illustrator 16.0.0, SVG Export Plug-In . SVG Version: 6.00 Build 0)  -->
<!DOCTYPE svg PUBLIC "-//W3C//DTD SVG 1.1//EN" "http://www.w3.org/Graphics/SVG/1.1/DTD/svg11.dtd">
<svg version="1.1" id="Layer_1" xmlns="http://www.w3.org/2000/svg" xmlns:xlink="http://www.w3.org/1999/xlink" x="0px" y="0px"
	 width="222.667px" height="222.333px" viewBox="68.167 -2.833 222.667 222.333"
	 style="enable-background:new 68.167 -2.833 222.667 222.333;" xml:space="preserve">
<style type="text/css">
<![CDATA[
	.st0{fill:none;stroke:#FFFFFF;stroke-width:1.7;stroke-miterlimit:10;}
]]>
</style>
    
<defs>
    <style type="text/css">
        .st0 {
            stroke-dasharray: 800;
            stroke-dashoffset: 0;
            -webkit-animation: wait 0.8s linear forwards, dash 1.8s 0.8s linear forwards, fill 1s 2.6s linear forwards;
            -moz-animation: wait 0.8s linear forwards, dash 1.8s 0.8s linear forwards, fill 1s 2.6s linear forwards;
            -o-animation: wait 0.8s linear forwards, dash 1.8s 0.8s linear forwards, fill 1s 2.6s linear forwards;
            animation: wait 0.8s linear forwards, dash 1.8s 0.8s linear forwards, fill 1s 2.6s linear forwards;
        }

        @-webkit-keyframes wait {
            0% {
                stroke-opacity: 0;
            }
            99% {
                stroke-opacity: 0;
            }
            100% {
                stroke-opacity: 1;
            }
        }
        
        keyframes wait {
            0% {
                stroke-opacity: 0;
            }
            99% {
                stroke-opacity: 0;
            }
            100% {
                stroke-opacity: 1;
            }
        }
        
        @-webkit-keyframes dash {
            0% {
                stroke-dashoffset: 800;
            }
            100% {
                stroke-dashoffset: 0;
            }
        }
        
        keyframes dash {
            0% {
                stroke-dashoffset: 800;
            }
            100% {
                stroke-dashoffset: 0;
            }
        }
        
        @-webkit-keyframes fill {
            0% {
                fill : #fff;
                fill-opacity: 0;
            }
            100% {
                fill: #fff;
                fill-opacity: 1;
            }
        }
        
        keyframes fill {
            0% {
                fill : #fff;
                fill-opacity: 0;
            }
            100% {
                fill : #fff;
                fill-opacity: 1;
            }
        }
    </style>
</defs>
<g>
	<path class="st0" d="M179.875,0.078c-59.647,0-108,48.353-108,108c0,59.646,48.353,108,108,108s108-48.354,108-108
		C287.875,48.431,239.522,0.078,179.875,0.078z M181.913,167.171h-25.812h-9.678h-41.945l25.811-51.62l20.972,41.942h25.811
		l-33.877-67.754l38.717-77.434l38.716,77.434l-12.906,25.81L175.46,51.021l-12.906,25.811l32.265,64.529L181.913,167.171z
		 M207.724,167.171l25.812-51.622l25.811,51.622H207.724z"/>
	<path class="st0" d="M179.875,0.078c-59.647,0-108,48.353-108,108c0,59.646,48.353,108,108,108s108-48.354,108-108
		C287.875,48.431,239.522,0.078,179.875,0.078z M181.913,167.171h-25.812h-9.678h-41.945l25.811-51.62l20.972,41.942h25.811
		l-33.877-67.754l38.717-77.434l38.716,77.434l-12.906,25.81L175.46,51.021l-12.906,25.811l32.265,64.529L181.913,167.171z
		 M207.724,167.171l25.812-51.622l25.811,51.622H207.724z"/>
</g>
</svg>
